<?xml version="1.0"?>
<svg xmlns:rdf="http://www.w3.org/1999/02/22-rdf-syntax-ns#" xmlns="http://www.w3.org/2000/svg" xmlns:cc="http://web.resource.org/cc/" xmlns:dc="http://purl.org/dc/elements/1.1/" xmlns:sodipodi="http://inkscape.sourceforge.net/DTD/sodipodi-0.dtd" xmlns:svg="http://www.w3.org/2000/svg" id="svg2" viewBox="0 0 744.09 1052.4" sodipodi:version="0.32" sodipodi:docname="slovenia.svg" sodipodi:docbase="/home/krpan">
  <sodipodi:namedview id="base" bordercolor="#666666" borderopacity="1.0" pagecolor="#ffffff"/>
  <g id="layer1">
    <path id="path1474" stroke="#00695c" stroke-width="10.5" d="m416.34 597.11c-1.67-1.79-4.92-4.58-7.22-6.22-2.31-1.63-4.44-3.96-4.75-5.17-0.76-3.04-2.35-3.59-17.37-6-2.35-0.38-5.08-2.09-8.29-5.21-5.31-5.16-6.65-4.79-6.71 1.85-0.04 4.51-2.02 8.38-4.52 8.86-1.08 0.21-3.02 1.21-4.3 2.21-2.98 2.35-10.7 3.57-12.6 2-0.77-0.64-1.93-3.36-2.58-6.05-0.97-4.05-1.67-5.06-4.16-5.92-1.64-0.58-4.82-2.5-7.06-4.27-2.49-1.97-5.68-3.45-8.18-3.78-3.34-0.45-4.16-0.98-4.43-2.89-0.18-1.29 0.19-3.61 0.83-5.16 1.52-3.66 0.05-6.53-4.29-8.36-1.76-0.75-5.01-2.98-7.21-4.96s-4.61-4.13-5.36-4.78c-0.95-0.83-1.23-2.81-0.92-6.54 0.37-4.47 0.17-5.36-1.19-5.36-0.9 0-2.17-0.54-2.83-1.2-0.93-0.93-1.21-0.65-1.23 1.25-0.05 4.33-6.12 14.2-9.47 15.39-2.5 0.88-3.03 1.65-3.17 4.56-0.49 9.87-1.59 14.06-4.21 16.02-1.44 1.08-3.28 2.52-4.09 3.21-3.01 2.58-8.16 5.77-9.32 5.79-0.67 0.01-3.19 1.36-5.61 3s-5.43 2.98-6.69 2.98-2.57 0.45-2.91 1c-0.91 1.47-6.04 1.22-10.15-0.5-1.98-0.82-4.37-1.5-5.32-1.5-0.94 0-2.53-0.9-3.53-2s-2.46-2-3.24-2c-1.65 0-5.18 3.89-5.23 5.75-0.03 1.23-2.05 1.77-5.03 1.36-0.82-0.11-4.2-0.38-7.5-0.59-12.19-0.77-21.01-4-26-9.52-1.34-1.48-2.14-1.71-3.1-0.92-0.71 0.6-2.33 0.99-3.6 0.89-4-0.33-4.08-0.05-0.9 3.57 1.7 1.94 3.1 4.12 3.1 4.85 0 1.92-2.09 7.59-2.85 7.74-0.36 0.08-3.53 0.27-7.04 0.44-5.83 0.27-6.72 0.62-10.18 4-3.19 3.11-4.23 3.58-6.61 3-1.55-0.38-4.17-0.94-5.82-1.25-3.9-0.74-5.3-1.93-7.36-6.26-1.3-2.75-2.25-3.53-4.16-3.42-3.22 0.17-14.97 3.19-17.22 4.41-2.38 1.31-4.11 1.2-7.43-0.47-1.56-0.78-4.79-2.22-7.19-3.2-5.75-2.35-7.54-5.18-6.89-10.9 0.34-3.05 0.13-4.48-0.67-4.48-1.95 0-3.38-2.05-2.848-4.08 0.348-1.32 1.388-1.92 3.328-1.92 1.55 0 3.1-0.45 3.44-1s2.95-1 5.81-1c2.85-0.01 6.53-0.71 8.16-1.56 1.64-0.85 4.34-1.48 6-1.39 5.04 0.26 5.54 0.05 6.59-2.7 0.82-2.17 0.64-3.04-1.03-4.81-1.12-1.19-2.03-2.88-2.03-3.75 0-3.07 7.05-3.84 10.84-1.19 1.26 0.88 4.89 1.84 8.07 2.13 5.78 0.52 5.8 0.51 8.98-3.44 1.75-2.18 4.99-4.98 7.2-6.22s3.88-2.64 3.71-3.1c-0.16-0.47-1.85-1.89-3.74-3.16-5.38-3.61-12.06-12.38-12.06-15.84 0-2.02-0.95-3.8-3-5.63-1.65-1.47-3-3.2-3-3.85 0-1.82-3.04-4.04-8.11-5.93-2.54-0.95-6.81-3.64-9.5-5.98-6.26-5.46-7.74-6.19-14.25-7.07-6.49-0.88-8.07-2.35-10.57-9.82-1.71-5.14-1.78-6.35-0.64-10.98 1.21-4.92 2.03-6.51 8.32-16.21 1.94-2.99 2.68-5.59 2.92-10.34l0.33-6.34-4.76-0.3c-4.27-0.26-4.97 0-6.82 2.59-1.69 2.37-2.78 2.89-6.098 2.89-3.461 0-4.674-0.64-8.432-4.45-4.834-4.9-5.639-8.51-2.64-11.82 1.245-1.38 1.689-3.35 1.539-6.83-0.191-4.43 0.049-5.02 2.573-6.33 1.531-0.79 3.396-2.17 4.144-3.07 0.748-0.91 2.965-2.49 4.927-3.53 1.957-1.03 6.477-4.6 10.037-7.92 3.56-3.33 6.79-6.05 7.17-6.05 0.39 0 0.99-1.33 1.35-2.95 0.36-1.63 1.53-4.08 2.61-5.45 1.95-2.48 1.95-2.5 0-3.55-1.08-0.57-5.34-1.05-9.46-1.05-7.7 0-10.64-1.28-10.64-4.62 0-1.7-5.754-4.38-9.409-4.38-1.36 0-2.751-0.45-3.091-1-0.985-1.59-8.103-1.18-9.542 0.55-0.716 0.87-2.434 1.42-3.872 1.25-2.117-0.24-2.601-0.84-2.668-3.3-0.045-1.65-1.058-4.89-2.25-7.21-1.192-2.31-2.175-5.46-2.183-7-0.009-1.53-0.427-3.44-0.931-4.23-1.147-1.82 0.456-5.06 2.503-5.06 0.817 0 2.014-1.16 2.659-2.57 0.645-1.42 2.382-3.2 3.86-3.97 2.443-1.26 2.641-1.79 2.187-5.82-0.435-3.86-0.228-4.51 1.61-5.1 1.16-0.37 2.514-0.42 3.008-0.11 0.495 0.3 3.002-0.68 5.572-2.19 2.57-1.5 7.208-4.1 10.306-5.78 4.631-2.49 5.781-3.65 6.481-6.5 0.47-1.9 2.03-4.51 3.47-5.8 2.39-2.14 3.37-2.32 10.93-2l8.31 0.34 1.12-4.5c0.62-2.47 1.1-5.75 1.06-7.29-0.03-1.53 0.87-4.57 2.01-6.75l2.06-3.95 5.65 0.61c3.11 0.34 6.65 1.24 7.86 2 2.6 1.62 5.91 1.81 6.79 0.38 0.34-0.55 2.14-1 3.99-1 1.86 0 4.54-0.44 5.96-0.98 5.64-2.14 14.82 1.16 24.71 8.9 3.16 2.48 4.18 2.58 5.84 0.58 1.75-2.11 6.25-1.86 12.31 0.67 5.61 2.34 9.69 5.45 9.69 7.4 0 0.66 0.84 2.25 1.88 3.53 1.59 1.96 2.91 2.35 8.75 2.53 3.78 0.12 7.77 0.27 8.87 0.34s4.27-0.17 7.04-0.53c3.97-0.51 5.32-0.31 6.37 0.96 1.65 1.98 4.34 2.04 7.93 0.18 1.51-0.78 5.98-1.73 9.93-2.12 7.05-0.7 7.2-0.66 8.14 1.82 1.1 2.87 2.19 3.71 7.01 5.41 2.24 0.78 4.04 0.87 5.19 0.25 4.47-2.39 9.31 1.05 12.03 8.56 2.34 6.47 4.82 3.63 4.85-5.56 0-2.5 0.57-5.31 1.26-6.24 0.69-0.92 4.41-2.51 8.28-3.52 7.43-1.94 10.43-4.15 14.42-10.6 2.76-4.46 4.28-5.3 11.13-6.1 10.53-1.23 10.1-0.77 14.42-15.66 2.05-7.11 7.98-15.82 10.74-15.8 1.24 0.01 2.84 0.38 3.56 0.84 0.85 0.54 2.57-0.34 4.99-2.56 4.78-4.38 8.08-4.18 9.67 0.57l1.13 3.37 1.9-4.22c3.03-6.72 10.97-11.54 15.16-9.2 1.25 0.7 2.56 0.62 4.32-0.26 3.8-1.89 16.81-1.93 19.68-0.05 3.34 2.19 10.12 2.85 15.35 1.48 2.48-0.64 7.42-1.33 11-1.53s9.25-0.62 12.62-0.93c4.89-0.44 6.38-0.23 7.45 1.06 0.74 0.89 2.37 2.01 3.61 2.48 1.25 0.47 2.91 2.4 3.69 4.28 1.39 3.33 1.54 3.4 5.58 2.66 2.29-0.42 5.37-1.83 6.85-3.13 1.49-1.31 2.9-2.5 3.15-2.66 0.24-0.15 0.39-1.95 0.33-4-0.18-6.16 5.96-10.91 12.72-9.83 3.29 0.52 4.09 0.18 7.34-3.06 3.64-3.64 3.66-3.65 7.9-2.33 7.44 2.31 14.79 1.44 21.37-2.52 4.14-2.5 6.95-3.48 9.96-3.48 4.43 0 12.58 3.35 18.33 7.53 1.87 1.36 4.43 2.47 5.7 2.47 3.29 0 7.27 2.02 7.9 4 0.3 0.94 1.65 2.21 3.02 2.83 2.41 1.1 2.48 1.02 2.48-2.8 0-5.1-1.61-8.53-4.66-9.92-5.17-2.36-7.54-12.95-5.39-24.11 0.48-2.47 0.52-5.12 0.09-5.89-2.01-3.59 1.26-6.03 10.11-7.54 2.01-0.34 3.9-1.26 4.2-2.05 0.68-1.76 7.86-5.52 10.55-5.52 1.09 0 2.26 0.45 2.6 1 0.95 1.54 5.14 1.19 10.31-0.85 8.68-3.42 10.92-3.88 16.28-3.37 5.1 0.5 8.05 2.14 16.71 9.32 2.3 1.91 0.48 9.99-2.91 12.9-3.29 2.83-3.58 4.18-1.3 6.07 1.03 0.87 1.4 2.25 1.05 4-0.4 1.99 0.09 3.27 1.89 4.96 1.34 1.26 2.71 3.14 3.04 4.19 0.33 1.04 1.69 2.31 3.02 2.81 1.44 0.55 2.41 1.73 2.41 2.93 0 1.92 1.03 2.44 6.5 3.27 1.72 0.26 2 1.07 2 5.79 0 5.19-0.14 5.5-2.67 5.79-4.11 0.48-4.23 2.86-0.32 6.77 1.92 1.92 3.49 3.88 3.49 4.35s1.12 1.14 2.49 1.48c2.35 0.59 10.51 9.68 10.51 11.71 0 0.51 1.13 1.36 2.51 1.89 1.38 0.52 3.01 2.2 3.61 3.72 0.6 1.53 1.5 3.55 1.99 4.51 0.49 0.95 0.89 3.45 0.89 5.55 0 3.53 0.34 3.98 4.5 6 3.56 1.73 4.5 2.71 4.5 4.7 0 2.31-0.36 2.51-4.53 2.51-4.68 0-6.71-1.31-14.61-9.49-2.15-2.22-3.63-2.91-5.8-2.68-2.12 0.22-3.22-0.26-4.02-1.76-0.65-1.22-2.11-2.07-3.53-2.07-3.7 0-7.51-2.11-7.51-4.16 0-2.8-1.31-2.23-5 2.16-1.85 2.2-3.88 4-4.52 4s-1.98 0.9-2.98 2-2.98 2.02-4.4 2.04c-1.43 0.02-3.93 1.12-5.56 2.45-2.93 2.4-2.94 2.44-1.33 5.83 0.9 1.88 2.4 6.48 3.34 10.24 1.3 5.19 2.52 7.59 5.08 10 3.76 3.55 4.08 4.98 1.81 8.22-1.89 2.7-7.97 3.03-12.5 0.69-2.17-1.12-3.47-1.26-4.88-0.5-3.22 1.72-5.83 1.18-9.41-1.97-4.05-3.56-5-3.63-11.31-0.93-2.66 1.14-5.86 1.88-7.11 1.64-2.99-0.58-3.84 0.96-1.79 3.23 0.91 1 1.9 3.38 2.21 5.3 0.47 2.89 0.16 3.78-1.76 5.13-1.29 0.9-3.13 1.63-4.1 1.63-1.07 0-2.48 1.5-3.54 3.75-1.57 3.32-2.2 3.76-5.55 3.86-2.51 0.06-4.69 0.92-6.49 2.56-3.38 3.06-7.45 4.83-11.12 4.83-1.54 0-4.5 1.15-6.56 2.54-3.91 2.66-10.86 5.42-13.69 5.45-1.16 0.01-1.5 0.61-1.13 2.02 0.59 2.24-1.25 7.56-3.53 10.24-1.76 2.07-6.74 2.33-7.88 0.4-0.49-0.83-3.53-1.57-7.93-1.93-8.83-0.72-11.64 0.69-10.71 5.35 0.52 2.57 0.02 3.54-3.53 6.92-4.31 4.1-4.48 4.76-3.79 14.51 0.45 6.36 1.48 8.24 6.27 11.47 2.47 1.67 4.72 3.03 5 3.03 1.55 0 11.41 5.13 11.51 5.99 0.07 0.56 0.21 1.57 0.32 2.26 0.1 0.69-0.13 1.7-0.52 2.25-0.38 0.55-1.02 3.03-1.42 5.5-0.4 2.48-1.1 5.21-1.56 6.08-0.45 0.86-0.33 4.46 0.28 8 1.3 7.62 0.54 12.68-2.5 16.55-1.77 2.26-2.15 3.84-1.88 7.85 0.19 2.76 0.75 5.45 1.25 5.97 1.29 1.35 1.13 4.93-0.29 6.35-0.66 0.66-2.17 1.2-3.35 1.2-1.17 0-2.95 0.9-3.95 2-2.4 2.66-3.58 2.54-9.8-0.97-6.7-3.78-11.2-3.36-14.21 1.32-2.37 3.69-4.95 4.45-7.42 2.21-1.62-1.46-1.9-1.47-3.09-0.03-0.72 0.87-1.58 3.24-1.91 5.27l-0.6 3.7-6.48 0.56c-5.32 0.46-8.47 1.59-17.47 6.25-6.94 3.6-12.32 7.16-14.64 9.7l-3.66 4.01 2.89 1.71c1.59 0.93 2.89 1.99 2.89 2.34s1.39 2.09 3.1 3.88c2.05 2.14 2.91 2.61 2.54 1.39-0.83-2.78 3.51-7.59 6.47-7.18 1.9 0.27 2.46 1.03 2.71 3.72 0.18 1.86-0.16 3.86-0.75 4.45-1.74 1.75-1.24 2.43 1.44 1.92 3.21-0.62 5.21 1.08 6.41 5.44 1.38 4.97 0.46 6.64-3.32 6-1.7-0.28-3.83-0.81-4.72-1.16-1.11-0.44-1.79 0.01-2.15 1.42-0.4 1.52-1.36 2.05-3.66 2.05-2.37 0-3.34 0.58-4.03 2.4-0.5 1.32-1.82 3.03-2.92 3.81-2 1.4-2 1.43-0.07 4.35 1.23 1.87 1.94 4.68 1.94 7.72 0.01 2.63 0.62 6.24 1.36 8.02 1.43 3.43 7.31 9.14 11.27 10.94 2.83 1.29 3.13 4.62 0.63 6.95-0.96 0.89-2.56 2.79-3.55 4.22-2.04 2.95-6.98 3.45-12.19 1.23-2.62-1.12-3.43-1.03-6.34 0.69-1.84 1.09-4.09 3.53-4.99 5.42-1.53 3.21-1.91 3.42-5.41 2.95-2.07-0.28-3.77-0.1-3.77 0.4s-1.49 0.9-3.32 0.9c-2.45 0-4.1-0.84-6.34-3.25zm14.97-8.41c2.35-2.99 8.78-6.34 12.18-6.34 1.42 0 4.11 0.64 5.98 1.43 2.86 1.19 3.59 1.2 4.53 0.07 0.87-1.05 0.09-2.29-3.59-5.67-5.63-5.18-7.41-9.01-7.41-15.97 0-3.39-0.56-5.82-1.62-6.99-0.89-0.98-1.84-3.78-2.12-6.21-0.41-3.71-0.11-4.8 1.87-6.77 1.3-1.29 2.83-3.26 3.38-4.37 0.56-1.11 2.47-2.45 4.25-2.97 3.35-0.99 4.4-2.55 1.72-2.55-0.83 0-4.13-2.59-7.33-5.75s-7.24-6.51-8.98-7.45c-2.59-1.39-3.17-2.32-3.17-5.05 0-3.61 1.47-5.75 3.95-5.75 0.85 0 2.85-1.62 4.43-3.61 1.59-1.99 5.19-4.7 8-6.03 2.82-1.33 8.49-4.2 12.6-6.39 5.71-3.02 8.62-3.97 12.25-3.97 4.46 0 4.77-0.17 4.77-2.57 0-4 5.03-8.43 9.56-8.43 2.27 0 4.18-0.63 4.9-1.62 1.31-1.78 7.84-4.34 11.17-4.36 1.16-0.01 4.54 1.05 7.5 2.35 4.28 1.88 5.85 2.15 7.71 1.3 2.24-1.01 2.31-1.35 1.66-8.68-0.64-7.18-0.53-7.8 1.85-10.62 2.98-3.55 3.33-5.72 2.29-14.37-0.58-4.8-0.37-8.05 0.79-12.46 0.86-3.28 1.57-6.23 1.57-6.56 0-0.8-6.7-3.98-8.38-3.98-0.72 0-2.09-0.86-3.04-1.91s-2.71-2.15-3.91-2.46c-2.91-0.73-5.89-5.96-6.92-12.13-0.46-2.75-1.09-6.44-1.39-8.19-0.77-4.37 2.26-11.9 5.79-14.42 2.24-1.59 2.85-2.81 2.87-5.71 0.01-4.53 0.59-5.44 4.83-7.62 2.85-1.46 4.98-1.61 14.25-1.01l10.9 0.71v-4.51c0-4.9 0.94-6.12 5.5-7.16 1.65-0.38 4.12-0.94 5.5-1.26s3.4-1.35 4.5-2.29c2.38-2.04 6.6-3.65 11.77-4.51 2.08-0.35 5.31-1.98 7.19-3.63 1.89-1.65 5.06-3.27 7.06-3.6 2.64-0.42 3.89-1.26 4.57-3.03 0.51-1.35 2.28-2.96 3.94-3.59 2.16-0.81 2.81-1.56 2.31-2.65-0.38-0.84-0.88-3.59-1.1-6.12-0.51-5.73 1.33-7.91 6.71-7.91 2.09 0 5.42-0.67 7.4-1.5 5.58-2.33 12.94-1.96 16.32 0.83 2.23 1.84 3.71 2.24 6.97 1.91 2.83-0.29 4.98 0.12 6.78 1.3 1.45 0.95 2.89 1.49 3.19 1.19s-0.36-0.83-1.47-1.18c-1.99-0.63-4.14-5.77-5.7-13.55-0.38-1.92-1.31-4.39-2.07-5.47-0.75-1.09-1.37-4.27-1.37-7.08 0-4.75 0.28-5.34 3.94-8.28 2.17-1.74 5.02-3.17 6.35-3.17 1.32 0 3.21-0.9 4.21-2s2.21-2 2.7-2c0.48 0 2.59-1.8 4.69-4 3.37-3.54 4.33-4 8.43-4 3.83 0 4.92 0.43 6.27 2.49 0.93 1.43 3.27 2.94 5.48 3.53 2.11 0.57 4.12 1.47 4.45 2.01 0.33 0.53 1.55 0.97 2.71 0.97s2.9 0.72 3.87 1.59c1.63 1.48 1.72 1.44 1.22-0.46-0.29-1.13-2.06-2.96-3.93-4.06-1.86-1.1-3.39-2.49-3.39-3.09 0-2.13-6.52-9.17-9.74-10.51-1.79-0.75-3.26-1.82-3.26-2.37s-1.46-2.36-3.25-4.03c-2.92-2.73-3.25-3.61-3.25-8.64 0-4.33 0.43-5.9 1.9-6.98 1.82-1.33 1.78-1.43-0.78-2.4-1.47-0.56-2.95-1.74-3.29-2.63s-1.57-2.68-2.73-3.97c-7.81-8.74-9.13-11.64-10.29-22.71-0.46-4.35-0.24-5 2.68-7.73 1.75-1.64 3.03-3.38 2.85-3.88-0.19-0.49-2.54-2.57-5.22-4.61-4.45-3.38-5.27-3.65-9.27-3.05-2.41 0.36-6.44 1.57-8.96 2.68-3.48 1.55-6.2 1.95-11.47 1.7-6.32-0.29-7.16-0.08-10.02 2.42-1.71 1.51-4.86 3.02-6.99 3.36s-4.27 1.13-4.75 1.75-1.41 4.51-2.06 8.66c-1.37 8.8-0.02 13.77 4.31 15.74 1.39 0.63 3.22 2.8 4.06 4.81 1.85 4.42 2.07 17.47 0.33 19.21-2.86 2.86-14.03 0.19-15.25-3.65-0.48-1.49-2.09-2.33-6.16-3.17-3.49-0.72-6.73-2.21-8.83-4.06-1.83-1.61-3.65-2.92-4.04-2.92-0.4 0-2.28-0.74-4.19-1.65-3.8-1.8-4.79-1.51-13.15 3.81-2.75 1.75-5.08 2.14-13.62 2.31-8.58 0.17-10.88 0.56-13.79 2.37-2.14 1.32-5.15 2.16-7.7 2.16-5.91 0-8.06 1.4-8.11 5.29-0.08 7.34-6.89 13.22-16.48 14.25-7.87 0.84-9.05 0.44-11.08-3.84-2.63-5.5-6.84-7.1-16.62-6.3-4.55 0.38-10.08 1.1-12.28 1.62-7.02 1.64-17.67 1.19-21.82-0.93-3.24-1.65-4.51-1.77-9.46-0.88-3.15 0.56-7.97 1.11-10.72 1.22-6.42 0.25-7.86 1.12-11.79 7.13-2.91 4.46-3.63 4.97-7.37 5.25-3.24 0.23-4.46-0.14-5.56-1.71-1.4-2-1.42-2-3.08-0.06-1.13 1.32-2.95 1.96-5.56 1.96-3.41 0-4.19 0.48-6.51 3.98-1.45 2.19-2.64 4.55-2.64 5.25-0.04 3.48-5.01 16.37-6.76 17.53-1.08 0.72-4.72 1.75-8.08 2.3-8.47 1.36-10.47 2.28-12.15 5.58-2.69 5.3-7.43 9.09-13.6 10.87-8.96 2.59-8.84 2.47-9.47 9.78-0.77 8.73-1.82 9.88-8.74 9.51-5.77-0.31-5.7-0.26-8.65-7.05-1.5-3.44-1.97-3.75-5.65-3.75-5.55 0-13.25-2.69-15.97-5.58-2.62-2.79-5.5-3.04-10.57-0.92-4.5 1.88-12.36 1.94-14.85 0.12-1.41-1.02-2.62-1.12-4.72-0.39-1.56 0.54-4.51 0.7-6.55 0.36-2.05-0.35-6.57-0.59-10.05-0.54-7.54 0.11-10.29-1.37-13.23-7.15-2.5-4.9-9.57-8.71-12.87-6.94-3.6 1.93-10.67 1.25-13.75-1.31-1.56-1.29-4.01-2.97-5.45-3.75-1.45-0.77-4.05-2.2-5.78-3.19-2.77-1.57-3.95-1.65-9.87-0.67-12.94 2.15-16.8 2.24-20.2 0.48-4.42-2.29-6.03-1.4-6.03 3.33 0 2.25-0.63 4.43-1.5 5.15-0.82 0.69-1.5 2.3-1.5 3.58 0 3.45-2.04 7.3-4.23 8-1.06 0.33-5.06 0.3-8.87-0.09-8.06-0.81-9.38-0.13-10.92 5.58-1.06 3.93-4.38 7.04-8.98 8.42-1.38 0.41-3.4 1.5-4.5 2.43s-4.345 2.79-7.211 4.13c-4.398 2.07-5.217 2.88-5.25 5.2-0.037 2.58-3.039 6.75-4.861 6.75-1.053 0-6.178 7.79-6.178 9.39 0 0.67 1.203 3.07 2.673 5.33 2.566 3.96 2.917 4.15 8.75 4.59 11.863 0.91 19.207 3.57 21.257 7.69 1.15 2.31 1.91 2.54 9.9 3.03 7.5 0.46 8.9 0.84 10.53 2.86 2.5 3.08 2.5 9.25 0 11.51-1.03 0.94-2.15 3.07-2.49 4.73-0.34 1.71-2.18 4.4-4.23 6.2-1.99 1.74-5.71 5.14-8.26 7.55s-5.8 4.88-7.22 5.5c-5.206 2.26-9.645 7.14-10.212 11.24-0.295 2.13-0.806 5.01-1.135 6.38-0.459 1.92-0.025 2.91 1.867 4.26 2.398 1.71 2.533 1.69 4.97-0.75 2.26-2.26 3.3-2.51 10.48-2.51 11.14 0 11.5 0.46 10.64 13.42-0.51 7.78-1.11 10.65-2.62 12.58-1.08 1.38-2.59 3.89-3.37 5.58-0.78 1.7-2.09 3.64-2.92 4.33-2.26 1.87-2.89 8.94-1.23 13.59 1.33 3.73 1.77 4.05 6.28 4.76 8.21 1.29 8.66 1.5 15.34 7.19 3.58 3.04 7.08 5.53 7.79 5.54 2.64 0.03 9.24 4.13 10.89 6.78 0.94 1.5 2.78 3.63 4.08 4.74 1.54 1.3 2.57 3.51 2.94 6.3 0.46 3.46 1.59 5.33 5.72 9.5 2.83 2.85 6.37 6 7.86 6.99 2.28 1.51 2.72 2.51 2.72 6.25 0 4.26-2.43 8.45-4.89 8.45-0.49 0-3.4 2.51-6.47 5.58l-5.57 5.57-8.46-0.32c-8.45-0.33-8.47-0.32-8.99 2.31-0.29 1.45-1.61 3.91-2.94 5.45-2.48 2.88-4.65 3.42-20.38 5.05-5.75 0.6-6.74 1.38-7.62 6.04-0.54 2.84-0.23 3.39 2.98 5.28 5.54 3.27 11.09 3.62 18.69 1.16 7.51-2.42 14.43-2.73 17.11-0.77 1.02 0.74 2.57 2.88 3.45 4.75 2.05 4.36 7.03 5.25 10.6 1.89 2.46-2.31 7.9-3.93 13.33-3.96l3.34-0.03-2.59-3.07c-2.84-3.38-3.43-8.4-1.31-11.29 1.47-2.02 7.32-3.58 13.53-3.61 3.44-0.02 4.84 0.54 7 2.8 4.9 5.15 9.63 7.12 18.81 7.82l8.51 0.66 2.88-3.16c2.47-2.7 3.56-3.15 7.71-3.15 3 0 5.78 0.67 7.31 1.75 6.89 4.88 14.78 4.92 21.42 0.11 2.17-1.57 4.55-2.86 5.28-2.86 1.58 0 6.34-2.92 7.79-4.78 0.56-0.71 2.13-1.86 3.5-2.54 2.65-1.32 3.76-5.51 3.91-14.81 0.07-4.93 1.01-6.22 5.23-7.23 1.93-0.46 3.37-2.05 5.25-5.83 1.42-2.86 2.59-5.98 2.59-6.93 0-4.43 5.25-6 12-3.6 5.92 2.1 6.2 2.49 5.84 8.27-0.33 5.11-0.18 5.48 3.66 8.98 2.2 2.01 5.36 4.25 7.02 4.98 4.91 2.15 6.77 4.98 7.27 11.01 0.37 4.43 0.8 5.48 2.24 5.48 0.99 0 4.05 1.78 6.8 3.96 2.76 2.18 6.19 4.26 7.63 4.62 2.65 0.67 4.73 3.71 5.92 8.67 0.78 3.27 1.94 3.44 5.35 0.75 1.4-1.1 3.1-2 3.79-2 1.43 0 2.45-3.11 2.47-7.53 0.02-5.09 2.45-7.47 7.61-7.47 3.92 0 5.08 0.56 9.19 4.4 4.34 4.05 5.26 4.45 11.7 5.14 8 0.85 14.27 3.69 15.07 6.82 0.31 1.18 3.29 4.18 6.64 6.67 5.13 3.82 6.64 4.47 9.65 4.12 2.23-0.26 4.28-1.32 5.46-2.81zm-167.18-12.09c1.24-1.58 1.21-1.62-0.38-0.38-1.67 1.31-2.2 2.13-1.37 2.13 0.21 0 0.99-0.79 1.75-1.75zm121.87-0.59c0-0.19-1.01-1.21-2.25-2.25l-2.25-1.91 1.9 2.25c1.8 2.12 2.6 2.71 2.6 1.91zm-191-3.04c0-0.2-0.79-0.99-1.75-1.75-1.59-1.24-1.62-1.2-0.38 0.38 1.31 1.67 2.13 2.2 2.13 1.37zm147 0.06c0-0.18-1.24-1.42-2.75-2.75l-2.75-2.43 2.42 2.75c2.27 2.57 3.08 3.21 3.08 2.43zm-232.87-4.43c1.24-1.58 1.21-1.62-0.38-0.38-1.67 1.31-2.2 2.13-1.37 2.13 0.21 0 0.99-0.79 1.75-1.75zm169.37-0.25c1-1.1 1.58-2 1.31-2-0.28 0-1.31 0.9-2.31 2s-1.58 2-1.31 2c0.28 0 1.31-0.9 2.31-2zm-118.37-16.75c1.24-1.58 1.21-1.62-0.38-0.38-0.96 0.76-1.75 1.55-1.75 1.75 0 0.83 0.82 0.3 2.13-1.37zm126.53-2.52c-0.28-0.67-0.49 0.12-0.47 1.77 0.03 1.65 0.25 2.21 0.5 1.23 0.26-0.97 0.24-2.32-0.03-3zm29.84-3.73c-1.58-1.65-3.1-3-3.37-3-0.28 0 0.79 1.35 2.37 3s3.1 3 3.37 3c0.28 0-0.79-1.35-2.37-3zm-22.37-3.75c1.24-1.58 1.21-1.62-0.38-0.38-1.67 1.31-2.2 2.13-1.37 2.13 0.21 0 0.99-0.79 1.75-1.75zm167.87-9.22c0-1.18-3.71-2.32-4.99-1.53-1.83 1.13-1.05 2 1.99 2.21 1.65 0.12 3-0.19 3-0.68zm-307-19.41c0-0.2-0.79-0.99-1.75-1.75-1.59-1.24-1.62-1.2-0.38 0.38 1.31 1.67 2.13 2.2 2.13 1.37zm290.5-8.62c1-1.1 1.58-2 1.31-2-0.28 0-1.31 0.9-2.31 2s-1.58 2-1.31 2c0.28 0 1.31-0.9 2.31-2zm-313.5-8.38c0-0.2-0.79-0.99-1.75-1.75-1.59-1.24-1.62-1.2-0.38 0.38 1.31 1.67 2.13 2.2 2.13 1.37zm-20.87-33.37c1.24-1.58 1.21-1.62-0.38-0.38-1.67 1.31-2.2 2.13-1.37 2.13 0.21 0 0.99-0.79 1.75-1.75zm-15.13-23.57c0-0.18-1.238-1.42-2.75-2.75l-2.75-2.43 2.424 2.75c2.266 2.57 3.076 3.21 3.076 2.43zm3.5-27.68c1-1.1 1.58-2 1.31-2-0.28 0-1.315 0.9-2.31 2s-1.585 2-1.31 2 1.315-0.9 2.31-2zm11-8c1-1.1 1.58-2 1.31-2-0.28 0-1.31 0.9-2.31 2s-1.58 2-1.31 2c0.28 0 1.31-0.9 2.31-2zm9.63-8.75c1.24-1.58 1.21-1.62-0.38-0.38-0.96 0.76-1.75 1.55-1.75 1.75 0 0.83 0.82 0.3 2.13-1.37zm478.68-63.77c-0.31-0.31-0.87 0.24-1.25 1.23-0.54 1.42-0.42 1.54 0.56 0.56 0.69-0.68 0.99-1.49 0.69-1.79zm-269.68-28.23c1.24-1.58 1.21-1.62-0.38-0.38-1.67 1.31-2.2 2.13-1.37 2.13 0.21 0 0.99-0.79 1.75-1.75zm355.87-16.57c0-0.18-1.24-1.42-2.75-2.75l-2.75-2.43 2.42 2.75c2.27 2.57 3.08 3.21 3.08 2.43zm-31-11.18c1.29-1.37 2.12-2.5 1.85-2.5-0.28 0-1.56 1.13-2.85 2.5-1.29 1.38-2.12 2.5-1.85 2.5 0.28 0 1.56-1.12 2.85-2.5zm24-8.8c0-0.17-1.69-1.86-3.75-3.75l-3.75-3.45 3.45 3.75c3.2 3.49 4.05 4.21 4.05 3.45zm-180.87-12.45c1.24-1.58 1.21-1.62-0.38-0.38-1.67 1.31-2.2 2.13-1.37 2.13 0.21 0 0.99-0.79 1.75-1.75zm152.87-32.63c0-0.2-0.79-0.99-1.75-1.75-1.59-1.24-1.62-1.2-0.38 0.38 1.31 1.67 2.13 2.2 2.13 1.37zm-49.5-29.62c1-1.1 1.58-2 1.31-2-0.28 0-1.31 0.9-2.31 2s-1.58 2-1.31 2c0.28 0 1.31-0.9 2.31-2z"/>
  </g>
  <metadata>
    <rdf:RDF>
      <cc:Work>
        <dc:format>image/svg+xml</dc:format>
        <dc:type rdf:resource="http://purl.org/dc/dcmitype/StillImage"/>
        <cc:license rdf:resource="http://creativecommons.org/licenses/publicdomain/"/>
        <dc:publisher>
          <cc:Agent rdf:about="http://openclipart.org/">
            <dc:title>Openclipart</dc:title>
          </cc:Agent>
        </dc:publisher>
        <dc:title>map of Slovenia</dc:title>
        <dc:date>2008-02-06T05:00:08</dc:date>
        <dc:description>cartography, cartography, clip art, clipart, europe, europe, geography, geography, image, media, png, public domain, slovenia, slovenia, svg, </dc:description>
        <dc:source>http://openclipart.org/detail/12955/map-of-slovenia-by-anonymous-12955</dc:source>
        <dc:creator>
          <cc:Agent>
            <dc:title>Anonymous</dc:title>
          </cc:Agent>
        </dc:creator>
        <dc:subject>
          <rdf:Bag>
            <rdf:li>cartography</rdf:li>
            <rdf:li>clip art</rdf:li>
            <rdf:li>clipart</rdf:li>
            <rdf:li>europe</rdf:li>
            <rdf:li>geography</rdf:li>
            <rdf:li>image</rdf:li>
            <rdf:li>media</rdf:li>
            <rdf:li>png</rdf:li>
            <rdf:li>public domain</rdf:li>
            <rdf:li>slovenia</rdf:li>
            <rdf:li>svg</rdf:li>
          </rdf:Bag>
        </dc:subject>
      </cc:Work>
      <cc:License rdf:about="http://creativecommons.org/licenses/publicdomain/">
        <cc:permits rdf:resource="http://creativecommons.org/ns#Reproduction"/>
        <cc:permits rdf:resource="http://creativecommons.org/ns#Distribution"/>
        <cc:permits rdf:resource="http://creativecommons.org/ns#DerivativeWorks"/>
      </cc:License>
    </rdf:RDF>
  </metadata>
</svg>
