<?xml version="1.0" encoding="UTF-8"?>
<!DOCTYPE svg PUBLIC "-//W3C//DTD SVG 1.1//EN" "http://www.w3.org/Graphics/SVG/1.1/DTD/svg11.dtd">
<svg version="1.1" xmlns="http://www.w3.org/2000/svg" xmlns:xlink="http://www.w3.org/1999/xlink" x="0" y="0" width="1080" height="705" viewBox="0, 0, 1080, 705" stroke="#00f" fill="#00f">
  <g id="Layer_1">
    <path d="M154.248,228.184 C154.441,229.334 154.178,230.488 153.501,231.438 C152.828,232.387 151.823,233.018 150.673,233.211 C149.526,233.406 148.372,233.139 147.421,232.466 C146.472,231.789 145.84,230.783 145.647,229.638 C145.452,228.487 145.718,227.332 146.395,226.381 C147.244,225.189 148.588,224.55 149.954,224.55 C150.83,224.55 151.711,224.814 152.478,225.356 C153.426,226.032 154.056,227.035 154.248,228.184 M198.858,263.696 L204.021,267.121 L203.872,267.33 C203.635,267.665 203.365,268.036 203.089,268.404 L198.122,264.708 C198.371,264.371 198.613,264.035 198.858,263.696 M192.122,279.832 L188.227,275.016 C188.551,274.757 188.874,274.49 189.194,274.223 L193.189,278.951 C192.837,279.248 192.483,279.541 192.122,279.832 M178.645,288.159 L176.078,282.525 C176.456,282.351 176.834,282.176 177.21,281.993 L179.895,287.575 C179.479,287.774 179.063,287.97 178.645,288.159 M172.111,239.801 C167.414,238.369 162.547,237.412 158.082,235.338 C157.479,235.064 156.886,234.771 156.288,234.484 C156.495,234.779 156.72,235.058 156.923,235.355 L156.611,235.687 C155.357,234.929 154.132,234.14 152.937,233.319 C152.311,233.745 151.604,234.044 150.839,234.173 C150.535,234.227 150.236,234.252 149.938,234.252 C148.837,234.252 147.768,233.911 146.852,233.263 C146.465,232.984 146.142,232.652 145.847,232.295 C144.534,233.085 143.218,233.869 141.9,234.652 C136.69,237.703 131.281,240.397 125.936,243.206 C115.264,248.863 104.563,254.466 93.831,260.01 L93.721,259.813 C104.135,253.689 114.576,247.621 125.051,241.607 C130.28,238.583 135.442,235.441 140.8,232.656 C142.167,231.963 143.529,231.268 144.896,230.576 C144.813,230.322 144.729,230.069 144.684,229.799 C144.534,228.919 144.634,228.043 144.908,227.22 C144.103,226.558 143.296,225.896 142.499,225.223 C138.034,221.481 134.209,217.062 130.109,212.931 L117.874,200.473 L106.1,188.171 L105.83,187.918 C105.834,187.913 105.842,187.909 105.847,187.901 L105.796,187.852 L106.108,187.517 L106.162,187.564 C106.365,187.345 106.571,187.124 106.778,186.906 L111.241,191.203 C111.125,191.323 111.011,191.448 110.893,191.572 L119.438,198.812 L132.612,210.273 C136.981,214.116 141.622,217.672 145.626,221.898 C146.32,222.627 147.005,223.361 147.69,224.101 C149.377,223.312 151.42,223.405 153.044,224.558 C153.601,224.952 154.062,225.446 154.423,226.008 C155.33,225.599 156.238,225.189 157.155,224.803 L157.266,225 C156.445,225.575 155.61,226.128 154.778,226.68 C154.974,227.106 155.133,227.548 155.214,228.022 C155.249,228.226 155.243,228.429 155.258,228.63 C156.878,228.991 158.489,229.384 160.082,229.82 C164.839,231.089 169.188,233.477 173.711,235.39 C178.242,237.292 182.752,239.237 187.246,241.233 C191.722,243.276 196.226,245.237 200.676,247.351 L200.475,247.903 C195.706,246.672 190.988,245.289 186.245,243.991 C185.596,243.804 184.949,243.601 184.302,243.414 L199.181,253.996 L191.914,264.209 L171.198,249.478 L177.04,241.263 C175.396,240.771 173.748,240.305 172.111,239.801 M163.533,292.864 L162.431,286.773 L163.662,286.537 L164.881,292.609 C164.433,292.7 163.981,292.786 163.533,292.864 M149.09,293.776 C148.633,293.751 148.172,293.725 147.713,293.689 L148.164,287.516 C148.579,287.544 148.994,287.571 149.41,287.592 L149.09,293.776 z M133.499,290.98 C133.064,290.844 132.631,290.699 132.196,290.556 L134.159,284.683 L135.355,285.069 L133.499,290.98 z M119.104,284.373 C118.717,284.133 118.331,283.89 117.944,283.639 L121.321,278.446 C121.67,278.671 122.02,278.896 122.372,279.115 L119.104,284.373 z M106.793,274.424 C106.476,274.09 106.162,273.758 105.851,273.421 L110.4,269.223 L111.265,270.136 L106.793,274.424 z M97.341,261.705 C97.114,261.306 96.892,260.903 96.676,260.496 L102.138,257.576 C102.333,257.941 102.536,258.31 102.739,258.673 L97.341,261.705 z M91.019,245.702 L97.037,244.236 C97.133,244.639 97.236,245.038 97.345,245.439 L91.361,247.044 C91.243,246.598 91.127,246.15 91.019,245.702 M89.198,230.622 L89.2,229.99 L95.393,230.029 L95.389,230.606 L95.395,231.288 L89.204,231.351 L89.198,230.622 z M91.341,214.282 L97.323,215.886 C97.216,216.289 97.114,216.688 97.015,217.09 L90.998,215.62 C91.11,215.176 91.223,214.727 91.341,214.282 M97.336,199.628 L102.731,202.668 C102.525,203.031 102.326,203.397 102.129,203.763 L96.672,200.83 C96.888,200.43 97.109,200.028 97.336,199.628 M119.083,176.937 L122.341,182.198 C121.99,182.419 121.639,182.641 121.29,182.867 L117.913,177.678 C118.302,177.422 118.688,177.178 119.083,176.937 M133.49,170.35 L135.33,176.262 C134.934,176.384 134.541,176.513 134.15,176.646 L132.17,170.777 C132.607,170.628 133.05,170.484 133.49,170.35 M149.069,167.542 L149.39,173.726 C148.978,173.749 148.566,173.775 148.153,173.805 L147.687,167.629 C148.147,167.596 148.608,167.566 149.069,167.542 M163.506,168.422 C163.955,168.505 164.403,168.593 164.852,168.68 L163.651,174.754 L162.42,174.523 L163.506,168.422 z M178.628,173.145 C179.044,173.333 179.455,173.526 179.868,173.726 L177.185,179.308 L176.049,178.773 L178.628,173.145 z M192.087,181.466 C192.448,181.756 192.806,182.049 193.158,182.351 L189.163,187.079 C188.85,186.815 188.531,186.551 188.21,186.294 L192.087,181.466 z M203.085,192.873 C203.361,193.242 203.635,193.616 203.901,193.992 L198.851,197.574 C198.609,197.237 198.366,196.905 198.117,196.573 L203.085,192.873 z M210.878,206.661 C211.053,207.091 211.223,207.517 211.39,207.944 L205.607,210.171 C205.458,209.785 205.305,209.397 205.151,209.012 L210.878,206.661 z M215.173,223.324 L209.021,224.043 C208.977,223.628 208.922,223.217 208.868,222.805 L214.998,221.954 C215.064,222.41 215.121,222.867 215.173,223.324 M215.038,239.152 L208.901,238.334 C208.955,237.923 209.005,237.512 209.051,237.097 L215.208,237.786 C215.156,238.238 215.101,238.695 215.038,239.152 M210.959,254.466 L205.226,252.123 C205.382,251.743 205.533,251.355 205.683,250.973 L211.468,253.178 C211.304,253.607 211.132,254.038 210.959,254.466 M207.396,269.771 C228.999,239.398 221.893,197.263 191.516,175.661 C161.147,154.056 119.012,161.166 97.407,191.539 C75.802,221.912 82.912,264.045 113.285,285.648 C143.657,307.254 185.79,300.144 207.396,269.771 M1032.99,211.62 L1032.98,211.622 C1032.98,211.618 1032.98,211.616 1032.98,211.614 L1032.99,211.62 z M1006.39,179.433 L988.495,189.604 L970.491,199.58 L952.383,209.371 L947.844,211.797 C946.471,212.58 945.175,212.916 943.767,212.875 C938.033,203.16 932.41,193.373 926.936,183.529 L928.763,182.355 L923.58,174.303 L920.214,176.472 C919.348,174.868 918.492,173.261 917.62,171.664 L907.65,153.657 L905.106,149.185 L904.155,147.511 L903.989,147.166 C903.785,146.705 903.611,146.225 903.562,145.721 C903.26,143.702 904.311,141.555 906.071,140.607 C913.9,136.045 921.705,131.439 929.485,126.798 C930.421,129.657 933.002,131.362 936.509,131.362 L936.559,131.362 C940.413,131.342 945.129,129.122 946.028,125.563 C946.397,124.099 946.351,121.365 942.483,118.981 L959.005,108.816 L963.374,106.096 C963.771,105.841 964.063,105.679 964.315,105.535 C964.594,105.393 964.878,105.251 965.179,105.155 C965.769,104.929 966.404,104.836 967.044,104.803 C967.59,104.781 968.141,104.844 968.685,104.96 L968.815,105.183 L969.052,105.043 C969.656,105.209 970.237,105.459 970.77,105.797 C971.33,106.144 971.85,106.567 972.277,107.082 C972.514,107.327 972.67,107.606 972.888,107.897 L973.571,108.989 C978.675,117.125 983.748,125.284 988.795,133.458 L985.088,135.375 L989.486,143.876 L993.828,141.63 C994.308,142.416 994.796,143.195 995.275,143.982 L1005.88,161.621 L1008.49,166.059 C1009.36,167.529 1010.3,168.993 1010.52,170.711 C1011.08,174.083 1009.39,177.722 1006.39,179.433 M478.149,644.604 C481.036,646.595 483.919,648.484 487.702,650.383 C483.864,652.212 479.323,652.015 475.292,650.945 C471.193,649.867 467.588,647.774 464.363,645.339 C461.138,642.886 458.393,639.941 456.11,636.683 C453.865,633.396 451.972,629.826 451.129,625.681 C454.866,627.581 458.022,629.689 461.065,631.834 C464.083,633.987 466.932,636.195 469.752,638.323 C472.572,640.434 475.277,642.657 478.149,644.604 M390.447,587.045 C388.202,583.758 386.309,580.19 385.466,576.045 C389.203,577.945 392.359,580.049 395.4,582.198 C398.419,584.352 401.269,586.56 404.089,588.688 C406.909,590.798 409.614,593.02 412.486,594.966 C415.371,596.959 418.255,598.849 422.039,600.747 C418.201,602.576 413.66,602.375 409.629,601.306 C405.527,600.23 401.921,598.139 398.7,595.703 C395.475,593.248 392.729,590.306 390.447,587.045 M217.628,491.445 C215.383,488.16 213.486,484.59 212.644,480.445 C216.382,482.346 219.54,484.451 222.58,486.599 C225.598,488.754 228.451,490.959 231.267,493.088 C234.091,495.197 236.795,497.422 239.667,499.365 C242.551,501.359 245.434,503.249 249.217,505.147 C245.38,506.977 240.84,506.777 236.81,505.707 C232.708,504.63 229.103,502.539 225.88,500.103 C222.655,497.648 219.907,494.705 217.628,491.445 M326.194,559.486 C320.234,557.735 314.802,554.736 309.93,551.188 C305.068,547.606 300.726,543.444 296.946,538.849 C293.2,534.232 289.874,529.246 287.668,523.579 C292.706,526.922 297.263,530.42 301.783,533.881 C306.277,537.361 310.7,540.777 315.152,544.051 C319.623,547.288 324.106,550.403 328.844,553.055 C333.595,555.759 338.517,557.906 344.423,559.295 C338.771,561.644 332.073,561.254 326.194,559.486 M595.042,431.931 C600.383,433.565 605.714,435.258 610.992,437.214 C605.373,436.932 599.806,436.385 594.25,435.781 C591.468,435.516 588.708,435.12 585.938,434.782 C583.172,434.438 580.403,434.084 577.653,433.652 L575.569,433.324 L575.112,430.946 C574.3,426.704 573.407,422.474 572.679,418.223 C572.003,414.533 571.397,410.834 570.793,407.134 C559.608,397.852 548.642,388.314 538.011,378.387 C532.541,373.218 527.079,368.039 521.788,362.656 C516.477,357.301 511.249,351.85 506.297,346.078 C512.746,350.106 518.927,354.451 525.02,358.896 C531.133,363.316 537.076,367.936 543.014,372.566 C554.823,381.895 566.28,391.634 577.502,401.646 L578.769,402.777 L578.945,404.287 C579.444,408.57 579.937,412.855 580.35,417.153 C580.739,420.761 581.016,424.382 581.317,428.002 C583.215,428.515 585.115,429.029 587.007,429.576 C589.686,430.355 592.377,431.079 595.042,431.931 M542.693,490.461 C548.037,492.098 553.367,493.79 558.643,495.744 C553.024,495.461 547.458,494.917 541.902,494.313 C539.12,494.045 536.362,493.65 533.592,493.31 C530.821,492.97 528.058,492.616 525.306,492.185 L523.221,491.856 L522.765,489.475 C521.952,485.234 521.06,481.006 520.33,476.755 C519.653,473.063 519.051,469.364 518.444,465.664 C507.262,456.381 496.296,446.846 485.663,436.919 C480.193,431.75 474.731,426.566 469.44,421.187 C464.133,415.833 458.903,410.38 453.948,404.608 C460.403,408.637 466.577,412.983 472.672,417.428 C478.787,421.847 484.73,426.467 490.666,431.096 C502.476,440.426 513.935,450.162 525.154,460.173 L526.423,461.305 L526.598,462.816 C527.094,467.103 527.591,471.387 528.001,475.682 C528.392,479.288 528.668,482.914 528.97,486.532 C530.867,487.047 532.768,487.56 534.659,488.106 C537.338,488.885 540.029,489.609 542.693,490.461 M962.849,95.079 L964.535,94.083 L966.522,97.451 L964.839,98.448 L962.849,95.079 z M958.87,88.343 L960.557,87.346 L962.546,90.715 L960.859,91.711 L958.87,88.343 z M954.892,81.607 L956.577,80.613 L958.567,83.983 L956.881,84.975 L954.892,81.607 z M950.917,74.87 L952.601,73.877 L954.591,77.245 L952.906,78.238 L950.917,74.87 z M946.938,68.138 L948.62,67.141 L950.611,70.509 L948.928,71.504 L946.938,68.138 z M942.961,61.399 L944.646,60.404 L946.633,63.773 L944.948,64.767 L942.961,61.399 z M938.982,54.664 L940.667,53.667 L942.656,57.035 L940.972,58.032 L938.982,54.664 z M935.004,47.928 L936.689,46.931 L938.679,50.299 L936.993,51.296 L935.004,47.928 z M931.026,41.191 L932.713,40.198 L934.7,43.566 L933.014,44.56 L931.026,41.191 z M927.05,34.454 L928.734,33.462 L930.724,36.83 L929.037,37.822 L927.05,34.454 z M923.071,27.722 L924.755,26.725 L926.745,30.094 L925.061,31.09 L923.071,27.722 z M862.06,64.574 L860.376,65.57 L858.386,62.202 L860.072,61.205 L862.06,64.574 z M866.038,71.311 L864.354,72.305 L862.365,68.937 L864.049,67.942 L866.038,71.311 z M870.018,78.047 L868.333,79.042 L866.344,75.674 L868.028,74.679 L870.018,78.047 z M873.994,84.779 L872.31,85.776 L870.32,82.41 L872.005,81.411 L873.994,84.779 z M877.973,91.516 L876.289,92.513 L874.3,89.147 L875.983,88.148 L877.973,91.516 z M881.952,98.253 L880.266,99.247 L878.276,95.879 L879.962,94.885 L881.952,98.253 z M885.929,104.991 L884.242,105.984 L882.253,102.615 L883.941,101.621 L885.929,104.991 z M889.905,111.722 L888.221,112.721 L886.231,109.353 L887.916,108.357 L889.905,111.722 z M893.884,118.46 L892.2,119.455 L890.21,116.089 L891.895,115.092 L893.884,118.46 z M897.86,125.197 L896.177,126.191 L894.189,122.821 L895.873,121.829 L897.86,125.197 z M901.838,131.934 L900.155,132.926 L898.166,129.558 L899.851,128.565 L901.838,131.934 z M920.778,19.992 L922.766,23.357 L921.082,24.354 L919.095,20.985 L920.778,19.992 z M856.818,55.694 L858.085,57.837 L856.398,58.834 L855.143,56.707 L856.818,55.694 z M799.414,472.506 L799.429,472.446 L799.424,472.506 C799.42,472.506 799.418,472.506 799.414,472.506 M420.511,313.699 C415.224,327.676 400.43,355.71 395.604,358.265 C393.19,359.371 391.375,359.736 390.04,359.762 C390.272,358.391 390.765,356.705 391.649,354.615 C395.944,344.463 401.638,328.477 407.714,310.39 C410.862,312.113 415.124,313.721 420.104,313.721 C420.238,313.721 420.378,313.704 420.511,313.699 M410.567,301.821 C411.552,298.839 412.545,295.819 413.537,292.775 C417.122,296.3 420.778,301.049 421.977,304.729 C417.122,305.348 413.022,303.416 410.567,301.821 M114.001,342.634 L115.594,343.766 L113.293,347 L111.7,345.867 L114.001,342.634 z M119.028,338.937 L117.895,340.532 L116.3,339.4 L117.434,337.805 L119.028,338.937 z M212.557,87.22 L210.255,90.457 L208.663,89.323 L210.962,86.088 L212.557,87.22 z M215.26,83.421 L214.855,83.986 L213.263,82.854 L213.665,82.287 L215.26,83.421 z M242.851,167.22 L241.714,168.814 L240.121,167.683 L241.258,166.088 L242.851,167.22 z M247.452,160.753 L245.151,163.986 L243.559,162.855 L245.859,159.621 L247.452,160.753 z M252.054,154.282 L249.753,157.516 L248.16,156.384 L250.461,153.148 L252.054,154.282 z M256.655,147.814 L254.354,151.049 L252.762,149.915 L255.063,146.68 L256.655,147.814 z M261.253,141.345 L258.957,144.578 L257.364,143.446 L259.663,140.211 L261.253,141.345 z M265.855,134.876 L263.555,138.111 L261.964,136.978 L264.265,133.742 L265.855,134.876 z M270.457,128.407 L268.156,131.641 L266.565,130.509 L268.866,127.273 L270.457,128.407 z M273.161,124.607 L272.758,125.174 L271.167,124.04 L271.568,123.476 L273.161,124.607 z M204.061,95.792 L206.361,92.559 L207.954,93.691 L205.653,96.924 L204.061,95.792 z M199.461,102.261 L201.76,99.029 L203.353,100.159 L201.052,103.395 L199.461,102.261 z M194.859,108.731 L197.16,105.496 L198.751,106.628 L196.454,109.861 L194.859,108.731 z M190.257,115.198 L192.559,111.967 L194.153,113.097 L191.853,116.332 L190.257,115.198 z M184.949,126.034 L183.812,127.629 L182.221,126.495 L183.354,124.904 L184.949,126.034 z M187.956,118.434 L189.552,119.565 L187.25,122.801 L185.655,121.669 L187.956,118.434 z M162.866,139.158 L174.612,147.515 C168.765,145.953 162.813,145.041 156.856,144.74 C158.003,140.817 169.018,128.638 169.018,128.638 C169.018,128.638 167.728,127.452 162.112,123.725 C161.145,125.087 137.831,144.565 126.434,148.623 C126.118,148.735 125.817,148.835 125.522,148.923 C125.375,148.966 125.222,149.019 125.08,149.056 L125.159,149.047 C124.877,149.143 124.594,149.244 124.31,149.342 L164.361,92.353 C168.581,95.578 176.086,101.033 185.786,106.938 L162.866,139.158 z M88.693,378.212 L90.994,374.98 L92.587,376.113 L90.286,379.346 L88.693,378.212 z M85.989,382.015 L86.393,381.447 L87.985,382.582 L87.584,383.148 L85.989,382.015 z M69.105,270.979 C70.996,269.112 72.77,267.498 74.15,266.419 C76.138,270.77 78.479,274.979 81.196,278.986 L69.105,270.979 z M28.089,340.829 L28.491,340.262 L30.082,341.396 L29.682,341.961 L28.089,340.829 z M34.685,334.927 L32.383,338.162 L30.788,337.028 L33.089,333.795 L34.685,334.927 z M39.286,328.458 L36.985,331.691 L35.39,330.558 L37.691,327.324 L39.286,328.458 z M43.888,321.989 L41.587,325.225 L39.996,324.091 L42.297,320.856 L43.888,321.989 z M48.489,315.519 L46.189,318.754 L44.598,317.62 L46.898,314.387 L48.489,315.519 z M53.092,309.05 L50.79,312.283 L49.195,311.153 L51.496,307.918 L53.092,309.05 z M57.691,302.581 L55.393,305.816 L53.798,304.683 L56.099,301.449 L57.691,302.581 z M61.126,297.755 L59.992,299.346 L58.399,298.216 L59.533,296.621 L61.126,297.755 z M69.105,270.979 L40.916,310.609 L21.315,295.895 L64.127,234.981 C60.975,248.335 55.087,270.281 47.748,283.569 C52.265,286.782 56.04,287.47 56.04,287.47 C54.941,286.445 62.712,277.283 69.105,270.979 M97.189,369.645 L94.888,372.875 L93.293,371.744 L95.594,368.511 L97.189,369.645 z M101.791,363.174 L99.489,366.409 L97.897,365.275 L100.198,362.042 L101.791,363.174 z M106.393,356.705 L104.092,359.938 L102.499,358.807 L104.8,355.573 L106.393,356.705 z M110.992,350.236 L108.691,353.469 L107.099,352.338 L109.399,349.105 L110.992,350.236 z M109.599,290.83 C76.366,267.191 68.587,221.086 92.226,187.854 C115.866,154.619 161.97,146.842 195.202,170.481 C228.438,194.118 236.216,240.224 212.577,273.456 C188.937,306.689 142.831,314.468 109.599,290.83 M505.362,605.59 C505.193,605.799 505.021,606.04 504.861,606.191 C500.349,606.047 480.837,601.914 470.877,592.127 C467.011,588.322 465.188,584.289 465.312,579.827 C469.789,579.571 473.968,579.264 477.902,579.584 C482.704,579.929 486.849,581.291 490.29,583.747 C493.756,586.184 496.688,589.758 499.24,593.981 C501.412,597.526 503.294,601.465 505.362,605.59 M495.361,576.498 C490.132,572.733 483.314,571.585 477.531,572.66 C473.511,573.383 469.848,574.883 466.563,576.911 C470.969,567.572 480.854,551.469 491.995,551.244 C511.492,550.846 515.354,565.708 515.953,568.684 C517.207,574.963 511.442,594.38 507.098,602.77 C507.235,598.911 506.77,595.023 505.615,591.203 C503.938,585.723 500.64,580.192 495.361,576.498 M458.721,542.242 C453.882,541.122 436.396,532.986 425.619,520.781 C422.052,516.747 419.768,512.828 418.727,509.065 C423.46,509.618 427.929,510.048 432.144,510.974 C437.244,512.12 441.869,513.91 445.555,516.773 C449.247,519.619 452.138,523.454 454.285,528.1 C456.258,532.305 457.543,537.079 458.721,542.242 M460.924,526.022 C459.718,519.887 456.241,513.752 450.894,509.724 C445.578,505.622 438.916,503.994 432.802,504.073 C427.691,504.2 422.817,505.371 418.339,507.356 C418.147,506.291 418.035,505.236 418.061,504.2 C422.297,496.228 434.536,478.101 447.033,477.854 C447.146,477.85 447.26,477.85 447.378,477.85 C463.314,477.85 476.923,499.992 478.349,507.119 C479.558,513.182 465.91,536.961 459.9,541.795 C461.615,536.865 461.998,531.423 460.924,526.022 M389.564,529.965 C401.437,513.698 411.745,496.755 417.192,481.577 C422.849,476.832 428.348,474.305 433.524,473.267 C419.667,481.747 410.248,500.018 409.741,501.012 L409.345,501.795 L409.28,502.674 C408.574,511.794 412.966,521.037 422.338,530.148 C434.571,542.038 453.439,551.23 459.742,551.23 C459.938,551.23 460.122,551.221 460.295,551.202 C462.479,550.97 465.772,549.635 471.903,541.297 C475.463,536.456 481.14,527.277 484.492,518.832 C484.905,522.443 484.546,525.498 483.304,527.589 C482.264,529.348 480.979,531.56 479.479,534.143 C476.945,538.51 473.671,544.142 469.845,550.527 C465.557,555.667 448.288,581.85 436.175,601.247 C436.077,601.401 435.99,601.547 435.89,601.7 C422.187,619.789 407.337,635.809 393.693,642.683 C379.025,650.075 364.45,643.48 354.802,636.646 C338.492,625.094 327.396,606.848 325.924,599.85 C349.708,584.358 372.129,556.637 389.564,529.965 M389.249,464.105 C388.007,458.316 383.783,453.017 378.695,449.981 C373.587,446.864 367.909,445.628 362.493,445.431 C357.844,445.305 353.294,445.908 348.912,447.277 C348.871,446.748 348.84,446.22 348.854,445.694 C353.107,437.723 365.37,419.59 377.827,419.342 C377.96,419.34 378.093,419.338 378.224,419.338 C393.572,419.338 405.044,437.122 406.585,444.816 C407.872,451.252 393.498,477.527 388.082,480.981 C384.062,480.439 366.611,473.245 356.181,461.82 C352.16,457.413 349.812,453.042 349.104,448.771 C353.373,450.076 357.493,451.09 361.407,452.277 C366.062,453.661 370.424,455.273 374.061,457.513 C377.665,459.773 380.664,462.549 382.72,466.511 C384.869,470.424 386.155,475.199 387.575,480.445 C389.806,475.529 390.595,469.851 389.249,464.105 M280.251,451.362 C276.963,451.396 262.495,448.356 253.811,439.916 C250.839,437.024 248.986,433.91 248.171,430.504 C251.342,431.197 254.313,431.661 257.146,432.319 C260.853,433.177 264.256,434.189 267.207,435.644 C270.171,437.087 272.689,438.952 274.813,441.648 C276.898,444.197 278.574,447.469 280.251,451.362 M280.954,438.381 C280.172,436.065 278.751,433.973 277.106,432.082 C276.201,431.241 275.308,430.332 274.299,429.619 C273.254,428.965 272.249,428.183 271.13,427.717 C266.715,425.558 261.922,424.988 257.479,425.394 C254.06,425.755 250.8,426.706 247.784,428.222 C247.701,427.389 247.653,426.548 247.685,425.683 C251.576,417.802 263.093,399.729 275.547,399.48 C291.29,399.183 300.871,410.145 302.373,417.664 C303.527,423.429 286.995,447.458 280.815,451.067 C282.41,447.196 282.506,442.667 280.954,438.381 M255.541,398.593 C256.128,398.553 256.77,398.46 257.385,398.393 C246.53,407.593 239.731,421.791 239.317,422.667 L238.976,423.4 L238.913,424.21 C238.273,432.46 241.293,440.086 247.646,446.26 C257.698,456.032 274.104,460.196 280.419,460.196 C280.819,460.196 281.181,460.182 281.499,460.147 C286.549,459.612 293.57,451.387 298.572,444.584 C301.057,441.205 305.374,434.941 308.269,428.654 C309.19,440.512 304.211,454.764 296.764,468.918 C295.028,471.206 293.269,473.534 291.479,475.945 C280.649,490.525 267.855,508.999 258.73,523.109 C254.533,528.037 251.356,531.532 249.985,533.02 C245.035,534.602 221.762,541.118 205.104,529.666 C193.416,521.635 187.222,506.258 186.682,483.946 C213.604,443.182 247.353,399.249 255.541,398.593 M262.53,593.952 C248.619,578.08 255.115,547.263 255.468,545.648 C256.29,543.585 259.852,537.561 265.245,529.169 C275.661,517.013 292.278,496.086 303.918,474.104 C325.916,445.231 349.972,417.978 363.542,414.703 C363.962,414.604 364.371,414.547 364.784,414.467 C350.673,422.814 341.05,441.496 340.539,442.501 L340.141,443.286 L340.074,444.162 C339.385,453.081 343.395,461.843 351.998,470.207 C363.449,481.338 382.006,489.855 388.613,489.855 C388.849,489.855 389.068,489.844 389.27,489.823 C391.425,489.595 394.333,488.4 399.572,481.275 C404.321,474.815 412.073,461.266 414.608,451.117 C415.743,454.904 416.112,458.292 415.659,460.875 C415.12,463.926 413.155,469.242 410.036,476.069 L409.614,476.438 L409.232,477.551 C409.087,477.964 408.91,478.392 408.761,478.809 C403.167,490.598 394.549,506.183 384.012,522.329 C360.662,554.66 330.116,585.089 321.239,592.187 C320.008,593.007 318.772,593.784 317.536,594.523 L317.291,594.654 L317.289,594.673 C309.29,599.428 301.295,602.495 293.521,603.229 C279.518,604.551 269.084,601.432 262.53,593.952 M493.911,677.556 C478.748,689.816 462.454,688.558 451.452,685.339 C432.613,679.829 418.4,665.735 415.489,657.825 C415.867,652.252 428.657,630.023 442.487,607.731 C447.673,600.932 452.678,593.856 457.404,586.833 C458.65,591.045 461.117,594.976 464.817,598.574 C476.608,610.04 498.364,615.027 505.346,615.027 C505.738,615.027 506.085,615.014 506.378,614.981 C508.581,614.75 510.583,613.364 512.501,610.756 C516.44,605.398 520.986,593.128 523.333,582.421 C523.441,598.62 521.742,655.055 493.911,677.556 M519.778,665.465 C518.302,664.98 517.004,664.558 515.787,664.17 C534.362,629.996 532.204,580.128 532.08,577.553 L532.069,577.484 L601.544,650.352 C598.858,652.783 593.372,657.52 582.181,666.611 C565.178,680.428 535.644,670.694 519.778,665.465 M657.206,426.05 C653.193,426.349 649.269,426.974 645.412,427.89 C641.559,428.806 637.772,429.993 634.06,431.499 C630.33,432.998 626.762,434.902 623.143,437.214 C627.403,438.51 631.553,438.425 635.584,438.263 C639.247,438.038 642.833,437.481 646.365,436.707 L763.876,561.216 C756.651,581.16 740.83,594.64 727.755,600.786 C717.129,605.789 706.678,606.987 699.588,604.099 L590.544,504.399 C593.239,503.629 595.909,502.757 598.522,501.658 C602.227,500.065 605.867,498.202 609.287,495.468 C604.991,494.62 600.912,494.629 596.896,494.895 C592.888,495.193 588.959,495.818 585.106,496.734 C581.249,497.65 577.465,498.838 573.752,500.344 C570.022,501.843 566.454,503.747 562.835,506.057 C567.099,507.355 571.243,507.27 575.276,507.107 C576.821,507.012 578.343,506.818 579.865,506.621 L692.317,609.441 C687.003,629.981 664.534,649.168 645.863,654.629 C630.268,659.189 616.329,651.004 611.927,647.999 L611.899,647.679 L610.436,646.853 L519.874,551.869 C515.502,546.086 509.86,541 502.783,538.932 C497.541,537.401 492.101,537.652 486.515,539.647 C486.718,539.295 486.934,538.924 487.131,538.585 C488.616,536.03 489.885,533.842 490.917,532.102 C498.7,518.967 487.901,491.468 468.699,475.516 C453.948,463.261 437.813,460.636 422.861,467.543 C423.643,465.367 424.157,463.62 424.369,462.416 C426.471,450.517 418.216,432.693 404.745,420.033 C391.434,407.526 376.066,402.58 361.468,406.102 C350.757,408.688 335.259,422.007 315.267,445.709 C317.443,436.786 317.945,428.251 315.902,420.678 C305.457,382.042 278.465,386.266 262.337,388.789 C259.613,389.215 257.038,389.617 254.909,389.769 C245.476,390.441 226.167,413.38 208.843,436.72 L111.711,363.773 L142.935,319.873 L135.648,315.05 C139.957,315.9 144.302,316.418 148.647,316.605 L130.795,341.705 L136.813,345.987 C166.783,313.974 198.169,309.986 202.318,300.767 L202.263,300.778 C206.11,298.046 209.761,294.969 213.171,291.559 L222.794,298.398 L223.754,297.049 L225.415,298.229 L235.042,284.697 L233.381,283.518 L234.343,282.164 L225.558,275.917 C235.862,259.294 239.839,240.353 237.993,222.058 C239.698,212.573 243.398,196.158 249.906,186.053 C247.307,183.523 243.531,181.522 243.531,181.522 L231.927,197.836 C229.714,192.457 226.96,187.282 223.653,182.398 L234.986,190.459 L276.266,132.426 C298.67,130.486 326.252,124.63 353.224,118.895 C386.973,111.722 421.869,104.313 436.488,107.627 C465.104,114.131 508.467,122.121 536.084,126.46 C502.492,146.215 461.877,171.434 438.577,186.028 L437.161,186.917 L436.684,188.516 C436.313,189.762 399.441,313.49 383.501,351.168 C381.499,355.897 380.863,359.724 381.075,362.828 L379.58,363.834 C379.657,363.946 380.336,364.872 381.606,365.875 C382.419,368.681 383.997,370.718 385.735,372.167 C385.644,372.163 385.557,372.167 385.466,372.163 C385.466,372.163 385.927,372.479 386.811,372.969 C388.186,373.918 389.797,374.657 391.61,375.214 C400.758,378.856 419.971,383.456 448.222,374.825 C516.788,353.889 547.202,290.404 566.771,281.375 C595.129,268.283 648.396,315.104 652.268,318.977 C654.9,321.611 707.552,371.642 741.438,403.967 L799.322,473.759 C799.918,473.813 800.624,473.428 801.274,473.534 C802.983,473.816 804.844,473.479 806.551,473.973 C808.958,474.683 811.317,475.588 813.589,476.714 C815.838,477.868 817.964,479.272 819.918,480.956 C821.841,482.669 823.461,484.737 824.799,487.082 C824.159,484.486 823.12,481.897 821.61,479.531 C820.078,477.201 818.222,475.035 816.139,473.096 C814.216,471.356 812.12,469.786 809.926,468.359 C811.886,467.364 813.896,466.345 815.95,465.303 C830.034,459.502 842.969,453.422 854.767,447.023 C854.964,449.379 855.275,452.166 855.661,455.557 C857.751,473.968 861.243,504.735 850.852,528.737 C837.167,551.327 799.528,557.312 770.269,553.3 L768.316,553.032 L655.885,433.905 C656.867,433.544 657.859,433.223 658.829,432.814 C662.536,431.221 666.175,429.357 669.595,426.623 C665.298,425.775 661.22,425.784 657.206,426.05 M982.903,270.829 L981.219,271.822 L979.231,268.454 L980.916,267.461 L982.903,270.829 z M986.882,277.566 L985.196,278.559 L983.206,275.19 L984.893,274.197 L986.882,277.566 z M990.86,284.303 L989.175,285.295 L987.186,281.927 L988.871,280.935 L990.86,284.303 z M994.836,291.039 L993.151,292.032 L991.164,288.659 L992.851,287.671 L994.836,291.039 z M1009.68,167.787 C1010.15,168.7 1010.54,169.651 1010.65,170.688 C1011.18,174.125 1009.42,177.765 1006.39,179.433 L988.631,189.841 L970.991,200.444 L953.456,211.231 L949.085,213.95 C948.043,214.66 946.71,215.238 945.324,215.523 C946.364,217.275 947.372,219.049 948.423,220.791 C952.437,227.446 956.521,234.053 960.787,240.5 C962.924,243.717 965.101,246.906 967.376,249.966 C968.521,251.48 969.677,252.993 970.886,254.378 C972.055,255.757 973.409,257.155 974.425,257.764 C976.937,259.196 980.864,259.57 984.481,259.526 C988.185,259.462 991.947,258.955 995.64,258.142 C1003.03,256.496 1010.23,253.651 1016.61,249.485 C1022.95,245.341 1028.48,239.663 1031.47,232.588 C1033.59,227.669 1034.24,222.218 1033.78,216.818 L1033.29,215.981 L1033.7,215.74 C1033.54,214.357 1033.28,212.986 1032.98,211.622 L1031.3,212.617 L1029.31,209.249 L1031,208.252 L1032.98,211.614 C1032.85,211.026 1032.73,210.437 1032.58,209.856 C1033.19,211.705 1033.68,213.614 1034.02,215.554 L1034.97,214.988 L1036.96,218.357 L1035.28,219.354 L1034.32,217.73 C1034.93,222.857 1034.52,228.126 1032.73,233.076 C1030.05,240.635 1024.57,246.973 1018.16,251.704 C1011.72,256.463 1004.35,259.882 996.632,262.078 C992.763,263.169 988.788,263.949 984.695,264.259 C982.721,264.406 980.71,264.415 978.663,264.246 L977.242,265.086 L976.593,263.989 C975.05,263.735 973.478,263.331 971.861,262.533 C969.466,261.221 968.126,259.682 966.675,258.203 C965.248,256.706 963.966,255.172 962.689,253.631 C961.792,252.528 960.933,251.409 960.068,250.292 L987.011,295.415 L944.768,322.074 C943.846,319.568 942.843,317.115 941.786,314.7 C938.04,306.249 933.693,298.216 929.105,290.346 C924.504,282.487 919.632,274.816 914.534,267.308 C911.979,263.557 909.372,259.849 906.668,256.206 C905.313,254.385 903.937,252.584 902.515,250.814 C901.798,249.935 901.075,249.063 900.319,248.213 C899.536,247.42 898.845,246.423 897.792,245.982 C898.791,246.5 899.396,247.542 900.105,248.39 C900.784,249.291 901.433,250.215 902.07,251.148 C903.337,253.012 904.558,254.912 905.754,256.829 C908.14,260.658 910.429,264.554 912.655,268.477 C917.103,276.328 921.302,284.315 925.2,292.422 C929.081,300.529 932.694,308.766 935.612,317.132 C937.051,321.311 938.33,325.534 939.169,329.713 C939.583,331.795 939.88,333.872 939.965,335.839 C940.048,337.43 939.707,339.778 939.331,341.313 C928.475,378.96 902.183,409.472 857.979,435.066 C853.72,436.449 845.478,440.578 827.986,449.339 C822.481,452.095 817.003,454.859 812.271,457.253 C809.81,458.265 804.091,459.797 800.244,461.01 L694.515,333.529 C698.032,334.23 701.569,334.79 705.109,335.187 C711.53,335.957 718.012,336.044 724.364,335.587 C730.733,335.268 736.967,333.839 742.956,332.248 C736.708,332.383 730.565,332.311 724.551,331.164 C718.552,330.161 712.697,328.66 707.076,326.559 C701.448,324.515 696.016,322.052 690.841,319.194 C690.321,318.903 689.817,318.601 689.302,318.304 C690.5,318.169 691.718,318.081 692.907,317.926 C699.264,317.115 705.556,316.092 711.819,314.929 C724.339,312.604 736.732,309.68 748.931,306.076 C761.108,302.434 773.15,298.138 784.473,292.265 C790.106,289.314 795.593,285.956 800.375,281.715 C805.107,277.514 809.211,272.154 810.42,265.887 C808.835,272.075 804.522,277.026 799.665,280.868 C794.754,284.734 789.194,287.706 783.503,290.279 C772.07,295.388 759.982,298.918 747.795,301.801 C735.586,304.646 723.214,306.81 710.795,308.373 C704.586,309.156 698.36,309.796 692.155,310.221 C689.053,310.443 685.957,310.58 682.896,310.649 C681.384,310.657 679.833,310.697 678.392,310.618 C678.103,310.609 677.854,310.58 677.575,310.568 C677.354,310.392 672.732,308.462 668.897,306.851 C662.219,302.066 651.767,293.106 642.212,284.909 C621.985,267.557 599.06,247.887 585.854,243.482 C584.559,243.051 583.24,242.806 581.898,242.701 C581.537,239.939 581.067,237.224 580.497,234.54 C579.209,228.582 577.517,222.753 575.343,217.106 C573.187,211.463 570.546,205.997 567.325,200.922 C564.11,195.844 560.237,191.182 555.702,187.365 C559.729,191.722 562.903,196.717 565.39,201.993 C567.877,207.27 569.742,212.804 571.123,218.436 C572.521,224.064 573.43,229.804 573.935,235.533 C574.167,238.253 574.294,240.976 574.296,243.654 C559.902,248.161 542.81,267.079 520.995,291.234 C506.392,307.407 489.837,325.738 472.39,341.091 C456.42,355.148 413.533,370.517 396.49,367.424 C397.383,367.117 398.312,366.756 399.287,366.309 C409.513,361.631 430.025,317.035 431.139,308.679 C432.327,299.764 423.127,289.118 416.499,283.647 C429.481,243.368 442.004,201.628 444.688,192.642 C497.045,159.879 581.73,108.416 591.231,106.63 C602.227,106.772 713.987,120.524 758.519,127.226 L759.413,127.361 L760.107,127.18 C761.509,127.397 762.913,127.637 764.283,127.92 C768.125,128.661 771.919,129.681 775.678,130.831 C783.175,133.204 790.407,136.476 797.132,140.631 C798.77,141.73 800.535,142.674 802.084,143.905 L806.788,147.552 C808.327,148.807 809.688,150.256 811.157,151.607 L813.323,153.676 L815.252,155.963 C820.738,161.848 824.572,169.021 828.115,176.305 C825.262,168.759 822.041,161.116 816.984,154.588 L815.211,152.054 L813.184,149.725 C811.803,148.2 810.514,146.562 809.039,145.114 L804.493,140.876 C802.985,139.44 801.254,138.29 799.636,136.982 C792.993,131.989 785.679,127.841 777.971,124.606 C776.463,123.986 774.937,123.413 773.403,122.844 C798.566,113.283 831.373,94.399 857.36,78.274 L896.529,143.876 C896.87,140.026 899.055,136.343 902.485,134.395 C914.393,127.583 926.325,120.814 938.374,114.24 L956.482,104.449 L961.026,102.024 C961.362,101.837 961.829,101.604 962.345,101.365 C962.845,101.151 963.355,100.956 963.881,100.823 C964.926,100.525 966.019,100.434 967.088,100.462 C968.479,100.514 969.841,100.863 971.1,101.43 L1009.68,167.787 z M1038.95,221.726 L1040.94,225.094 L1039.25,226.086 L1037.27,222.718 L1038.95,221.726 z M1044.92,231.826 L1043.23,232.823 L1041.24,229.455 L1042.93,228.46 L1044.92,231.826 z M1048.9,238.563 L1047.21,239.56 L1045.22,236.191 L1046.91,235.198 L1048.9,238.563 z M1052.87,245.299 L1051.19,246.296 L1049.2,242.928 L1050.89,241.936 L1052.87,245.299 z M1056.85,252.036 L1055.17,253.033 L1053.18,249.664 L1054.86,248.668 L1056.85,252.036 z M1060.83,258.773 L1059.14,259.766 L1057.16,256.397 L1058.84,255.404 L1060.83,258.773 z M1025.03,198.148 L1023.35,199.144 L1021.36,195.775 L1023.04,194.781 L1025.03,198.148 z M1029.01,204.886 L1027.32,205.881 L1025.33,202.513 L1027.02,201.518 L1029.01,204.886 z M997.13,298.765 L995.141,295.4 L996.825,294.403 L998.814,297.772 L997.13,298.765 z M925.104,3.085 L838.222,55.65 L846.202,69.021 C818.257,86.195 781.937,106.781 758.622,113.41 C710.467,106.246 601.666,92.951 591.071,92.951 C588.766,92.951 584.498,92.953 547.329,114.324 C521.521,110.594 470.873,101.413 439.521,94.286 C421.956,90.299 387.191,97.688 350.379,105.513 C326.313,110.629 301.449,115.912 280.869,118.228 L208.459,66.723 L189.659,93.154 C177.341,85.399 169.406,78.915 169.329,78.853 L161.614,72.469 L104.889,153.184 C94.416,159.597 85.493,167.935 78.348,177.979 C71,188.309 65.981,199.813 63.425,212.186 L2.5,298.872 L29.114,318.857 L12.792,341.809 L92.788,398.713 L107.643,377.83 L196.923,444.875 C187.163,458.518 178.813,471.018 174.5,477.569 L172.938,479.944 L172.976,482.787 C173.362,510.523 181.564,530.089 197.355,540.939 C206.094,546.949 216.776,549.996 229.097,549.996 C232.997,549.996 236.978,549.69 240.996,549.088 C239.341,561.07 237.925,586.607 252.22,602.946 C261.804,613.892 276.242,618.596 294.804,616.85 C301.532,616.216 308.516,614.27 315.628,611.056 C321.002,622.595 332.466,637.589 346.894,647.808 C358.004,655.678 369.159,659.667 380.058,659.667 C386.915,659.667 393.572,658.064 399.851,654.899 C400.704,654.468 401.571,654.004 402.444,653.51 C401.322,657.637 401.713,659.781 402.386,661.802 C406.639,674.567 424.718,691.773 447.61,698.469 C453.884,700.305 460.157,701.235 466.259,701.235 C479.614,701.235 491.812,696.848 502.513,688.194 C506.201,685.212 509.656,681.65 512.819,677.58 C513.669,677.856 514.565,678.153 515.496,678.459 C526.292,682.016 542.606,687.395 558.906,687.395 C571.772,687.395 582.507,683.975 590.806,677.23 C599.772,669.946 605.292,665.357 608.876,662.196 C616.944,666.676 632.313,672.85 649.703,667.76 C669.521,661.964 694.345,643.204 703.614,619.092 C712.699,620.107 723.172,618.06 733.58,613.167 C753.049,604.012 768.357,587.566 776.076,567.691 C806.641,570.154 846.248,563.218 862.747,535.503 L863.271,534.481 C875.275,507.076 871.506,473.864 869.255,454.014 C868.941,451.262 868.514,447.51 868.32,444.862 C911.616,419.026 938.745,387.827 951.081,349.663 L951.417,349.746 L952.512,344.999 L953.903,340.11 L953.205,339.909 C953.299,338.105 953.24,336.265 953.021,334.488 C952.964,334.055 952.899,333.616 952.829,333.168 L989.938,309.746 L993.238,315.275 L1076.75,263.918 L925.104,3.085" fill="#2e7d32"/>
  </g>
</svg>
