<?xml version="1.0" encoding="UTF-8"?>
<!DOCTYPE svg PUBLIC "-//W3C//DTD SVG 1.1//EN" "http://www.w3.org/Graphics/SVG/1.1/DTD/svg11.dtd">
<svg version="1.1" xmlns="http://www.w3.org/2000/svg" xmlns:xlink="http://www.w3.org/1999/xlink" x="0" y="0" width="433" height="492" viewBox="0, 0, 433, 492">
  <g id="Layer_1">
    <path d="M273.355,312.893 C273.355,302.965 281.433,294.887 291.362,294.887 C301.292,294.887 309.369,302.965 309.369,312.893 C309.369,322.821 301.292,330.899 291.362,330.899 C281.433,330.899 273.355,322.821 273.355,312.893 M98.407,203.9 C98.407,211.924 91.879,218.452 83.856,218.452 C75.833,218.452 69.305,211.924 69.305,203.9 C69.305,195.877 75.833,189.349 83.856,189.349 C91.879,189.349 98.407,195.877 98.407,203.9 M223.818,413.79 C223.818,415.268 222.617,416.468 221.14,416.468 C219.664,416.468 218.462,415.268 218.462,413.79 C218.462,412.313 219.664,411.112 221.14,411.112 C222.617,411.112 223.818,412.313 223.818,413.79 M117.476,411.913 C117.476,413.389 116.274,414.591 114.798,414.591 C113.32,414.591 112.119,413.389 112.119,411.913 C112.119,410.436 113.32,409.235 114.798,409.235 C116.274,409.235 117.476,410.436 117.476,411.913 M204.263,421.356 C202.309,423.212 199.768,424.19 197.053,424.128 L133.851,422.499 C128.289,422.354 123.879,417.712 124.023,412.149 C124.164,406.677 128.663,402.319 134.109,402.319 C134.195,402.319 134.283,402.319 134.372,402.321 L197.574,403.95 C200.268,404.02 202.774,405.136 204.63,407.089 C206.487,409.044 207.471,411.604 207.401,414.298 C207.332,416.993 206.217,419.501 204.263,421.356 M221.14,417.538 C219.075,417.538 217.394,415.856 217.394,413.79 C217.394,411.725 219.075,410.044 221.14,410.044 C223.207,410.044 224.886,411.725 224.886,413.79 C224.886,415.856 223.207,417.538 221.14,417.538 M220.181,403.784 L200.202,403.268 C202.171,403.792 203.967,404.839 205.406,406.352 C207.459,408.514 208.547,411.347 208.47,414.327 C208.393,417.306 207.16,420.079 204.999,422.13 C204.531,422.575 204.027,422.968 203.501,423.319 L219.667,423.737 C222.343,423.807 224.863,422.831 226.797,420.997 C228.73,419.161 229.832,416.681 229.9,414.016 C229.969,411.352 228.998,408.819 227.16,406.888 C225.325,404.954 222.846,403.85 220.181,403.784 M114.798,415.659 C112.731,415.659 111.05,413.979 111.05,411.913 C111.05,409.847 112.731,408.165 114.798,408.165 C116.863,408.165 118.544,409.847 118.544,411.913 C118.544,413.979 116.863,415.659 114.798,415.659 M122.955,412.122 C123.089,406.888 126.838,402.556 131.738,401.503 L118.077,401.151 C117.99,401.149 117.903,401.147 117.817,401.147 C112.432,401.147 107.982,405.458 107.844,410.87 C107.701,416.372 112.062,420.964 117.563,421.106 L127.466,421.36 C124.652,419.264 122.857,415.888 122.955,412.122 M315.543,278.361 L323.581,278.361 L323.581,281.569 L315.543,281.569 z M102.285,278.361 L110.322,278.361 L110.322,281.569 L102.285,281.569 z M293.363,387.009 L310.642,387.009 L310.642,420.21 L293.363,420.21 z M293.363,421.124 L311.557,421.124 L311.557,386.097 L293.363,386.097 L293.363,382.061 L314.426,382.061 L314.426,422.304 L293.363,422.304 L293.363,421.124 z M47.545,377.292 L64.825,377.292 L64.825,410.493 L47.545,410.493 z M47.545,411.407 L65.74,411.407 L65.74,376.38 L47.545,376.38 L47.545,372.345 L68.608,372.345 L68.608,412.587 L47.545,412.587 L47.545,411.407 z M420.897,344.325 L426.588,354.184 L388.432,376.212 L367.297,339.608 L373.386,339.608 C378.835,339.608 406.555,338.891 420.897,344.325 M46.437,383.936 C31.624,383.405 16.814,382.821 2,382.317 L2,352.909 C2,345.593 7.986,339.608 15.303,339.608 L366.245,339.608 L388.099,377.46 L427.836,354.518 L422.274,344.886 C426.428,346.694 429.19,349.114 429.495,352.35 L429.821,381.188 C424.538,383.46 419.244,385.708 413.929,387.901 C409.583,389.688 405.219,391.431 400.816,393.052 C398.616,393.868 396.399,394.63 394.167,395.294 C393.048,395.583 391.945,395.903 390.789,395.94 C390.215,395.987 389.649,396.054 389.071,396.087 L387.316,396.132 C377.951,396.354 368.541,396.102 359.15,395.911 C349.753,395.669 340.358,395.389 330.963,395.061 C325.82,394.888 320.677,394.686 315.535,394.507 L315.535,380.952 L292.255,380.952 L292.255,393.667 C267.58,392.759 242.904,391.806 218.232,390.764 L105.501,386.247 L69.716,384.841 L69.716,371.237 L46.437,371.237 L46.437,383.936 z M87.453,454.157 C87.453,461.145 85.481,467.681 82.067,473.239 L17.814,469.811 C15.557,465.063 14.289,459.757 14.289,454.157 C14.289,433.985 30.7,417.575 50.871,417.575 C71.043,417.575 87.453,433.985 87.453,454.157 M218.142,392.977 C242.844,393.905 267.547,394.839 292.255,395.641 L292.255,398.229 L219.118,395.292 L162.754,393.081 L106.381,391.009 C94.161,390.567 81.939,390.155 69.716,389.761 L69.716,386.149 L105.426,387.942 C142.991,389.782 180.566,391.372 218.142,392.977 M401.111,393.835 C405.502,392.13 409.839,390.307 414.157,388.442 C419.409,386.179 424.624,383.839 429.825,381.468 L429.887,387.005 C429.158,387.306 428.432,387.618 427.703,387.919 C423.364,389.727 419.018,391.518 414.658,393.266 C410.298,395.013 405.919,396.718 401.51,398.296 C399.308,399.089 397.09,399.829 394.875,400.468 C393.77,400.741 392.695,401.044 391.563,401.067 C391.002,401.108 390.453,401.167 389.883,401.196 L388.136,401.223 C378.804,401.372 369.388,401.054 360.006,400.794 L331.831,399.821 L315.535,399.165 L315.535,396.341 C320.661,396.485 325.787,396.641 330.915,396.766 C340.316,396.993 349.718,397.171 359.124,397.311 C368.531,397.395 377.93,397.559 387.363,397.218 L389.13,397.141 C389.725,397.097 390.327,397.018 390.923,396.956 C392.127,396.891 393.29,396.538 394.439,396.218 C396.701,395.501 398.917,394.692 401.111,393.835 M293.314,481.075 L287.865,484.222 L231.644,481.222 L217.623,456.932 L263.937,430.194 L293.314,481.075 z M46.437,389.032 C31.626,388.595 16.814,388.202 2,387.85 L2,382.518 L46.437,384.966 L46.437,389.032 z M227.687,421.932 C225.576,423.936 222.832,425.03 219.933,425.03 C219.833,425.03 219.734,425.03 219.634,425.026 L201.051,424.548 C199.866,424.97 198.612,425.198 197.322,425.198 C197.223,425.198 197.125,425.198 197.026,425.194 L133.823,423.567 C132.416,423.53 131.082,423.223 129.854,422.714 L117.529,422.395 C111.315,422.235 106.392,417.05 106.552,410.839 C106.709,404.723 111.735,399.856 117.816,399.856 C117.915,399.856 118.012,399.858 118.11,399.862 L220.214,402.493 C223.225,402.569 226.025,403.813 228.097,405.997 C230.171,408.181 231.269,411.04 231.191,414.05 C231.114,417.059 229.869,419.858 227.687,421.932 M429.894,387.618 C429.251,387.921 428.615,388.231 427.972,388.532 C423.703,390.507 419.416,392.442 415.113,394.348 C410.81,396.253 406.487,398.114 402.101,399.862 C399.91,400.741 397.695,401.571 395.417,402.315 C394.253,402.649 393.061,403.022 391.833,403.098 C391.225,403.167 390.606,403.253 390.004,403.304 L388.228,403.395 C378.762,403.811 369.37,403.714 359.952,403.7 C350.542,403.63 341.136,403.46 331.732,403.278 C326.333,403.182 320.933,403.059 315.535,402.927 L315.535,423.413 L292.255,423.413 L292.255,402.282 C286.611,402.114 280.968,401.944 275.324,401.776 L218.941,399.72 L162.577,397.263 C143.793,396.347 125.007,395.485 106.23,394.452 C94.057,393.819 81.886,393.136 69.716,392.436 L69.716,413.694 L46.437,413.694 L46.437,391.067 C31.624,390.122 16.81,389.222 2,388.22 L2,456.376 C2,463.692 7.986,469.679 15.303,469.679 L16.568,469.745 C14.399,464.989 13.18,459.716 13.18,454.157 C13.18,433.374 30.088,416.468 50.871,416.468 C71.653,416.468 88.562,433.374 88.562,454.157 C88.562,461.145 86.644,467.69 83.315,473.307 L230.324,481.151 L216.108,456.528 L264.343,428.681 L294.83,481.479 L289.894,484.331 L379.373,489.104 C395.631,489.104 432.231,454.485 430.568,447.095 L429.894,387.618 z M246.958,191.267 C246.958,192.261 246.15,193.069 245.156,193.069 C244.164,193.069 243.355,192.261 243.355,191.267 C243.355,190.274 244.164,189.466 245.156,189.466 C246.15,189.466 246.958,190.274 246.958,191.267 M242.247,191.267 C242.247,192.872 243.552,194.178 245.156,194.178 C246.761,194.178 248.067,192.872 248.067,191.267 C248.067,189.664 246.761,188.358 245.156,188.358 C243.552,188.358 242.247,189.664 242.247,191.267 M251.083,196.001 L251.084,196.388 L250.661,196.384 L238.166,196.26 C237.895,197.551 237.531,198.842 237.049,200.129 C236.572,201.436 235.955,202.733 235.151,203.999 C234.35,205.264 233.376,206.515 232.079,207.65 C230.798,208.771 229.132,209.773 227.159,210.287 C226.672,210.427 226.16,210.506 225.65,210.581 C225.144,210.633 224.54,210.665 224.343,210.675 L222.589,210.768 C217.916,210.984 213.24,211.127 208.565,211.205 C199.215,211.351 189.865,211.202 180.515,210.762 L176.915,210.559 C174.846,210.457 172.878,209.749 171.357,208.761 C169.817,207.769 168.65,206.569 167.701,205.341 C166.741,204.112 166.033,202.826 165.452,201.532 C164.666,199.789 164.141,198.027 163.779,196.267 L152.024,196.384 L151.6,196.388 L151.601,196.001 L151.616,187.342 L152.364,195.544 L163.458,194.403 C163.427,194.178 163.384,193.952 163.356,193.728 C163.134,191.826 163.096,189.936 163.209,188.074 C161.708,187.755 160.208,187.424 158.708,187.062 C157.524,186.788 156.34,186.483 155.159,186.173 C153.979,185.839 152.795,185.544 151.616,185.171 C152.832,184.942 154.042,184.792 155.254,184.604 C156.466,184.438 157.676,184.279 158.885,184.149 C161.304,183.87 163.72,183.651 166.133,183.464 L168.17,183.303 L168.561,186.042 C169.174,190.343 170.562,194.518 172.67,197.635 C173.721,199.15 174.991,200.383 176.001,200.726 C176.496,200.916 176.83,200.928 177.102,200.868 L180.515,200.676 C189.865,200.236 199.215,200.086 208.565,200.232 C213.24,200.31 217.916,200.454 222.589,200.67 L224.343,200.763 C224.732,200.784 224.712,200.781 224.789,200.806 C224.857,200.803 224.929,200.827 225.009,200.816 C225.319,200.823 225.773,200.69 226.312,200.357 C227.423,199.728 228.607,198.312 229.587,196.69 C230.56,195.044 231.351,193.139 231.958,191.134 C232.251,190.127 232.518,189.096 232.724,188.042 C232.824,187.514 232.921,186.983 232.994,186.447 L233.054,186.043 C237.998,180.553 234.441,184.523 235.551,183.297 L235.58,183.298 L235.634,183.3 L235.746,183.305 L235.966,183.312 L236.851,183.347 C241.571,183.53 246.301,183.805 251.07,184.431 C246.984,185.881 242.868,187.041 238.742,188.11 C238.748,188.215 238.759,188.32 238.765,188.427 C238.828,189.706 238.824,190.999 238.716,192.296 C238.667,192.972 238.594,193.649 238.5,194.327 L250.322,195.544 L251.07,187.342 L251.083,196.001 z M155.728,191.267 C155.728,190.274 156.535,189.466 157.528,189.466 C158.521,189.466 159.33,190.274 159.33,191.267 C159.33,192.261 158.521,193.069 157.528,193.069 C156.535,193.069 155.728,192.261 155.728,191.267 M160.439,191.267 C160.439,189.664 159.133,188.358 157.528,188.358 C155.925,188.358 154.619,189.664 154.619,191.267 C154.619,192.872 155.925,194.178 157.528,194.178 C159.133,194.178 160.439,192.872 160.439,191.267 M243.21,109.29 C243.21,108.524 243.831,107.904 244.596,107.904 C245.361,107.904 245.982,108.524 245.982,109.29 C245.982,110.056 245.361,110.676 244.596,110.676 C243.831,110.676 243.21,110.056 243.21,109.29 M243.21,100.459 C243.21,99.693 243.831,99.073 244.596,99.073 C245.361,99.073 245.982,99.693 245.982,100.459 C245.982,101.224 245.361,101.845 244.596,101.845 C243.831,101.845 243.21,101.224 243.21,100.459 M184.318,109.29 C184.318,110.056 183.698,110.676 182.933,110.676 C182.168,110.676 181.547,110.056 181.547,109.29 C181.547,108.524 182.168,107.904 182.933,107.904 C183.698,107.904 184.318,108.524 184.318,109.29 M184.318,100.459 C184.318,101.224 183.698,101.845 182.933,101.845 C182.168,101.845 181.547,101.224 181.547,100.459 C181.547,99.693 182.168,99.073 182.933,99.073 C183.698,99.073 184.318,99.693 184.318,100.459 M177.783,272.028 C177.783,267.348 181.59,263.542 186.27,263.542 L246.295,263.542 C250.974,263.542 254.781,267.348 254.781,272.028 C254.781,276.708 250.974,280.514 246.295,280.514 L186.27,280.514 C181.59,280.514 177.783,276.708 177.783,272.028 M175.914,269.366 C175.694,270.22 175.565,271.107 175.565,272.028 C175.565,277.93 180.367,282.731 186.27,282.731 L246.295,282.731 C252.197,282.731 256.999,277.93 256.999,272.028 C256.999,271.107 256.87,270.22 256.65,269.366 L262.904,269.366 C263.398,272.731 265.389,275.615 268.177,277.319 C265.389,279.023 263.398,281.908 262.904,285.273 L169.662,285.273 C169.167,281.908 167.175,279.023 164.387,277.319 C167.175,275.615 169.167,272.731 169.662,269.366 L175.914,269.366 z M351.962,228.681 C349.461,228.235 347.113,227.775 345.31,227.423 C339.799,226.342 335.446,225.488 332.865,225.488 L294.558,225.488 L299.774,207.612 L260.39,199.764 L253,225.488 L69.028,225.488 C63.509,225.488 59.019,221.12 59.019,215.75 L59.019,179.863 C69.061,179.786 79.978,179.707 91.491,179.627 C91.426,180.019 91.384,180.419 91.384,180.83 C91.384,184.927 94.718,188.259 98.815,188.259 L124.047,188.259 C128.145,188.259 131.478,184.927 131.478,180.83 C131.478,180.331 131.426,179.845 131.333,179.374 C179.063,179.096 231.013,178.88 271.646,178.898 C271.432,179.591 271.316,180.326 271.316,181.09 C271.316,185.185 274.649,188.519 278.747,188.519 L303.978,188.519 C308.076,188.519 311.409,185.185 311.409,181.09 C311.409,180.371 311.3,179.679 311.109,179.021 C330.604,179.157 343.003,179.418 344.122,179.847 C348.18,181.47 360.023,188.609 365.842,192.171 L367.185,228.681 L351.962,228.681 z M253.576,225.488 L260.782,200.406 L299.074,208.036 L293.984,225.488 L253.576,225.488 z M59.019,177.477 C68.603,177.403 79.878,177.322 92.314,177.238 C92.089,177.644 91.902,178.074 91.756,178.522 C76.064,178.627 64.396,178.715 59.019,178.755 L59.019,177.477 z M96.97,178.486 C97.481,178.083 98.115,177.833 98.815,177.833 L124.047,177.833 C124.637,177.833 125.185,178.01 125.648,178.306 C115.275,178.367 105.607,178.43 96.97,178.486 M126.665,179.401 C126.898,179.828 127.043,180.309 127.043,180.83 C127.043,182.481 125.699,183.825 124.047,183.825 L98.815,183.825 C97.162,183.825 95.819,182.481 95.819,180.83 C95.819,180.388 95.92,179.973 96.092,179.596 C105.94,179.53 116.187,179.465 126.665,179.401 M272.902,176.516 C272.591,176.914 272.322,177.342 272.095,177.798 C229.041,177.769 174.547,178.02 131.016,178.274 C130.851,177.828 130.646,177.402 130.403,177.001 C177.143,176.731 231.014,176.501 272.902,176.516 M306.974,181.09 C306.974,182.742 305.63,184.085 303.978,184.085 L278.747,184.085 C277.093,184.085 275.75,182.742 275.75,181.09 C275.75,180.223 276.125,179.449 276.714,178.901 C287.505,178.911 297.406,178.939 306.11,178.988 C306.643,179.53 306.974,180.272 306.974,181.09 M59.019,164.534 C59.019,159.164 63.509,154.795 69.028,154.795 L332.865,154.795 C334.74,154.795 341.868,157.892 351.21,164.538 C361.544,171.89 365.183,176.879 365.325,178.107 L365.622,186.175 C359.49,182.431 348.596,175.907 344.568,174.297 C340.492,172.666 212.708,173.163 126.087,173.69 C125.438,173.504 124.755,173.399 124.047,173.399 L98.815,173.399 C97.894,173.399 97.015,173.575 96.2,173.884 C80.511,173.99 67.593,174.086 59.019,174.152 L59.019,164.534 z M98.405,101.566 L139.284,101.566 L139.284,110.851 L141.5,110.851 L141.5,110.759 L142.921,110.759 L142.921,112.791 C142.921,112.791 143.568,118.334 147.454,119.027 C148.978,119.299 149.949,118.669 150.592,117.693 C150.002,119.244 148.949,120.5 146.899,120.135 C143.744,119.573 142.725,115.813 142.453,114.419 L142.575,145.355 L102.839,145.355 C100.395,145.355 98.405,143.366 98.405,140.922 L98.405,101.566 z M98.405,76.624 C98.405,74.18 100.395,72.19 102.839,72.19 L142.366,72.19 L142.366,92.283 L139.284,92.283 L139.284,99.349 L98.405,99.349 L98.405,76.624 z M103.635,25.385 C121.604,22.817 173.59,16.611 216.065,11.844 L216.409,14.265 L104.64,27.038 L104.765,28.14 L216.564,15.358 L217.18,19.687 L243.374,16.606 L242.586,12.384 L272.815,8.928 C273.281,8.944 273.682,8.919 274.073,8.895 C275.486,8.808 276.704,8.732 280.587,11.058 L313.465,29.198 L313.465,40.042 L313.481,40.953 L314.101,41.597 C314.283,41.785 314.486,42.084 314.557,42.26 C314.528,42.331 314.468,42.428 314.407,42.524 C306.463,38.237 278.956,23.599 273.744,23.599 L273.741,23.599 C268.902,23.602 240.154,26.279 207.555,29.473 C207.73,29.519 207.818,29.562 207.876,29.593 C208.309,29.825 208.701,30.499 209.051,31.56 C241.081,28.425 269.087,25.82 273.744,25.816 L273.745,25.816 C277.529,25.816 298.943,36.682 313.465,44.536 L313.465,46.282 L276.158,27.99 L209.696,33.316 L209.786,34.42 L275.524,29.152 C275.69,32.838 276.564,52.14 276.986,59.393 C271.892,59.047 235.47,61.241 200.061,63.539 L202.58,54.901 L182.834,50.967 L178.835,64.888 L178.97,64.926 C161.527,66.088 146.124,67.142 137.248,67.756 L106.113,67.756 C105.702,59.509 105.14,48.032 105.065,45.893 L160.341,39.689 L160.614,39.659 L160.49,38.556 L160.19,38.59 L104.97,44.788 C104.802,44.037 104.407,43.5 103.983,43.107 L105.057,42.748 L105.057,42.036 C111.798,41.342 133.901,39.071 160.014,36.44 C159.971,35.366 160.02,34.501 160.191,34.188 C134.299,36.799 112.286,39.063 105.048,39.809 C105.036,38.521 105.002,36.477 104.917,34.407 C104.697,29.137 104.468,26.17 102.375,25.699 C102.605,25.599 102.998,25.474 103.635,25.385 M241.678,9.022 L242.107,11.328 L216.684,14.233 L216.34,11.813 C225.359,10.802 233.945,9.854 241.678,9.022 M243.046,16.365 L217.416,19.381 L216.839,15.327 L242.31,12.415 L243.046,16.365 z M276.879,5.677 C280.725,5.78 307.095,21.756 313.876,26.272 L313.465,26.477 L313.465,27.931 L281.14,10.098 C276.976,7.603 275.535,7.695 274.003,7.788 C273.645,7.809 273.275,7.832 272.77,7.824 L242.384,11.296 L241.955,8.993 C260.425,7.006 273.982,5.677 276.879,5.677 M278.106,59.578 C277.707,52.782 276.847,33.873 276.648,29.463 L313.465,47.517 L313.465,67.756 L308.037,67.756 C300.962,64.65 283.495,60.694 278.106,59.578 M282.597,114.352 C282.66,113.983 282.703,113.117 282.732,111.96 L284.722,111.96 L284.722,101.566 L321.78,101.566 L321.78,140.922 C321.78,143.366 319.79,145.355 317.345,145.355 L281.835,145.355 L281.729,118.363 C282.283,116.957 282.442,115.287 282.597,114.352 M273.533,96.754 L273.533,100.32 L272.563,100.32 L272.563,99.349 L271.697,99.349 L271.697,94.5 L282.505,94.5 L282.505,96.8 L281.778,96.796 L273.533,96.754 z M228.375,141.633 L242.259,114.414 L258.197,122.544 L247.419,145.355 L235.671,145.355 L228.375,141.633 z M152.326,94.5 L152.537,108.542 L152.153,108.542 C152.223,103.289 152.129,95.1 152.129,95.1 L142.921,95.055 L142.921,108.542 L141.5,108.542 L141.5,94.5 L152.326,94.5 z M241.41,106.371 L241.41,97.965 L246.952,97.965 L246.952,112.376 L180.439,112.376 L180.439,97.965 L186.536,97.965 L186.536,106.371 L241.41,106.371 z M179.116,64.917 L183.031,51.288 L202.229,55.114 L199.767,63.558 C192.754,64.014 185.789,64.473 179.116,64.917 M272.563,72.19 L272.563,92.283 L269.48,92.283 L269.48,99.349 L248.06,99.349 L248.06,96.855 L241.41,96.855 L241.41,94.546 L186.536,94.546 L186.536,96.855 L179.33,96.855 L179.33,99.349 L154.617,99.349 L154.509,92.283 L151.432,92.283 L151.432,72.19 L272.563,72.19 z M188.351,145.355 L175.098,145.355 L167.202,129.605 L179.533,123.425 L190.728,144.163 L188.351,145.355 z M191.487,144.402 L179.766,122.688 L166.458,129.358 L174.478,145.355 L151.641,145.355 L151.521,115.347 C151.765,114.316 151.877,113.306 151.986,112.652 C152.038,112.339 152.077,111.664 152.105,110.759 L153.677,110.759 L153.677,110.574 L154.786,110.557 L154.65,101.566 L179.33,101.566 L179.33,113.484 L241.927,113.484 L227.408,141.947 L234.088,145.355 L189.587,145.355 L191.487,144.402 z M272.771,145.355 L248.214,145.355 L259.146,122.221 L242.018,113.484 L248.06,113.484 L248.06,101.566 L269.48,101.566 L269.48,111.96 L272.563,111.96 L272.563,109.743 L271.697,109.743 L271.697,101.566 L272.563,101.566 L272.563,100.596 L273.533,100.596 L273.533,114.491 C273.533,114.491 273.953,118.056 276.125,119.823 C273.731,118.752 272.89,115.657 272.648,114.419 L272.771,145.355 z M321.78,76.624 L321.78,99.349 L284.722,99.349 L284.722,92.283 L281.627,92.283 L281.627,72.19 L317.345,72.19 C319.79,72.19 321.78,74.18 321.78,76.624 M365.793,190.839 C359.768,187.155 348.579,180.435 344.534,178.817 C343.361,178.348 330.454,178.071 310.692,177.926 C310.472,177.463 310.208,177.026 309.902,176.623 C329.174,176.746 341.735,176.983 343.333,177.385 C347.538,179.066 360.385,186.858 365.768,190.166 L365.793,190.839 z M375.36,228.681 L373.77,228.681 L371.907,178.031 C371.828,172.398 362.899,164.819 355.402,159.443 C348.179,154.262 337.944,148.212 332.865,148.212 L322.381,148.212 C324.694,146.609 326.213,143.941 326.213,140.922 L326.213,100.864 C326.174,100.498 326.174,100.135 326.213,99.778 L326.213,76.624 C326.213,71.922 322.531,68.073 317.9,67.784 L317.9,45.276 C318.408,44.579 319.008,43.495 319.008,42.26 C319.008,41.025 318.408,39.94 317.9,39.243 L317.9,29.018 C318.507,28.498 319.121,27.749 319.279,26.77 C319.44,25.779 319.113,24.818 318.359,24.064 C318.13,23.835 283.556,1.243 276.882,1.243 C266.967,1.243 134.099,16.553 103.009,20.995 C97.894,21.725 97.715,24.87 97.783,25.816 C97.892,27.349 98.869,28.823 100.089,29.566 C100.385,31.278 100.578,35.639 100.616,39.683 C99.522,40.255 98.532,41.083 98.254,42.258 C98.026,43.223 98.318,44.199 99.055,44.935 C99.648,45.528 100.217,45.886 100.64,46.146 C100.754,49.263 101.456,63.402 101.678,67.841 C99.508,68.127 97.587,69.198 96.204,70.762 L96.188,69.974 L80.945,92.144 L80.945,148.212 L69.028,148.212 C59.879,148.212 52.435,155.534 52.435,164.534 L52.435,215.75 C52.435,221.016 54.995,225.695 58.943,228.681 L50.183,228.681 C42.867,228.681 36.88,234.667 36.88,241.983 L36.88,273.119 L88.894,273.119 C90.2,268.954 94.103,265.91 98.683,265.91 L116.42,265.91 C121,265.91 124.903,268.954 126.208,273.119 L164.374,273.119 C165.687,271.699 166.499,269.806 166.499,267.724 L166.499,266.083 L177.375,266.083 C179.297,263.216 182.566,261.325 186.27,261.325 L246.295,261.325 C249.998,261.325 253.267,263.216 255.19,266.083 L266.066,266.083 L266.066,267.724 C266.066,269.806 266.876,271.699 268.191,273.119 L300.905,273.119 C302.21,268.954 306.114,265.91 310.694,265.91 L328.431,265.91 C333.011,265.91 336.915,268.954 338.219,273.119 L388.662,273.119 L388.662,241.983 C388.662,234.667 382.676,228.681 375.36,228.681 M247.921,39.211 C251.742,39.211 254.851,42.319 254.851,46.139 C254.851,49.96 251.742,53.068 247.921,53.068 C244.101,53.068 240.994,49.96 240.994,46.139 C240.994,42.319 244.101,39.211 247.921,39.211 M247.921,53.345 C251.895,53.345 255.128,50.113 255.128,46.139 C255.128,42.166 251.895,38.933 247.921,38.933 C243.949,38.933 240.716,42.166 240.716,46.139 C240.716,50.113 243.949,53.345 247.921,53.345 M169.642,37.77 C169.485,36.078 169.322,34.333 168.878,33.078 C179.654,26.568 195.574,29.92 198.17,30.53 C198.311,31.747 198.694,35.684 198.202,38.521 C181.083,35.433 173.963,39.545 171.266,41.103 C170.886,41.323 170.585,41.496 170.37,41.597 C169.976,41.356 169.767,39.112 169.642,37.77 M203.95,33.612 C204.496,33.612 204.94,34.057 204.94,34.602 C204.94,35.149 204.496,35.593 203.95,35.593 C203.403,35.593 202.958,35.149 202.958,34.602 C202.958,34.057 203.403,33.612 203.95,33.612 M199.38,38.107 C199.399,38.302 199.419,38.476 199.439,38.606 C203.378,38.996 207.814,38.883 208.368,38.008 C209.351,36.45 208.015,31.01 207.35,30.568 C207.267,30.527 206.317,30.169 199.295,30.599 C199.445,31.947 199.745,35.324 199.38,38.107 M164.364,36.953 C164.911,36.953 165.355,37.397 165.355,37.943 C165.355,38.489 164.911,38.933 164.364,38.933 C163.818,38.933 163.374,38.489 163.374,37.943 C163.374,37.397 163.818,36.953 164.364,36.953 M168.645,41.711 C168.202,38.356 167.653,34.817 167.351,33.646 C164.677,34.005 161.729,34.518 161.118,34.81 C160.889,35.816 161.456,41.641 162.216,42.196 C164.206,42.551 167.426,41.963 168.645,41.711 M102.559,269.097 L112.543,269.097 C117.585,269.097 121.688,273.2 121.688,278.242 C121.688,283.285 117.585,287.389 112.543,287.389 L102.559,287.389 C97.516,287.389 93.413,283.285 93.413,278.242 C93.413,273.2 97.516,269.097 102.559,269.097 M291.362,294.609 C301.444,294.609 309.645,302.81 309.645,312.893 C309.645,322.975 301.444,331.177 291.362,331.177 C281.281,331.177 273.079,322.975 273.079,312.893 C273.079,302.81 281.281,294.609 291.362,294.609 M314.57,269.097 L324.555,269.097 C329.597,269.097 333.7,273.2 333.7,278.242 C333.7,283.285 329.597,287.389 324.555,287.389 L314.57,287.389 C309.528,287.389 305.424,283.285 305.424,278.242 C305.424,273.2 309.528,269.097 314.57,269.097 M50.183,336.581 L375.36,336.581 C382.676,336.581 388.662,330.595 388.662,323.278 L388.662,276.229 L338.681,276.229 C338.659,279.905 336.671,283.128 333.727,284.921 C335.098,283.044 335.917,280.74 335.917,278.242 C335.917,277.555 335.844,276.885 335.728,276.229 C335.53,275.129 335.173,274.085 334.682,273.119 C332.804,269.424 328.975,266.881 324.555,266.881 L314.57,266.881 C310.149,266.881 306.32,269.424 304.443,273.119 C303.952,274.085 303.595,275.129 303.397,276.229 C303.279,276.885 303.208,277.555 303.208,278.242 C303.208,280.74 304.027,283.043 305.396,284.921 C302.453,283.128 300.466,279.904 300.443,276.229 L274.019,276.229 L274.019,278.961 C269.633,278.961 266.066,282.528 266.066,286.914 L266.066,288.556 L166.499,288.556 L166.499,286.914 C166.499,282.528 162.93,278.961 158.545,278.961 L158.545,276.229 L126.67,276.229 C126.647,279.904 124.661,283.128 121.717,284.921 C123.087,283.043 123.907,280.74 123.907,278.242 C123.907,271.977 118.809,266.881 112.543,266.881 L102.559,266.881 C96.294,266.881 91.196,271.977 91.196,278.242 C91.196,280.74 92.016,283.043 93.385,284.921 C90.442,283.128 88.455,279.904 88.432,276.229 L36.88,276.229 L36.88,323.278 C36.88,330.595 42.867,336.581 50.183,336.581" fill="#00695c"/>
  </g>
</svg>
